<svg width="40" height="40" viewBox="0 0 40 40" fill="none" xmlns="http://www.w3.org/2000/svg">
<rect width="40" height="40" rx="5" fill="#ECE5E5"/>
<path fill-rule="evenodd" clip-rule="evenodd" d="M26.7505 18.5001L26.744 18.7429L26.7505 19.0001L26.7444 19.2433L26.7505 19.5001L26.7446 19.745L26.7505 20.0001L26.5881 27.1031C26.5496 28.7884 25.2678 30.184 23.5919 30.3655C21.2045 30.624 18.7961 30.624 16.4087 30.3655C14.7328 30.184 13.451 28.7884 13.4125 27.1031L13.2501 20.0001L13.256 19.7433L13.2501 19.5001L13.2563 19.2443L13.2501 19.0001L13.2566 18.744L13.25 18.5001L13.414 12.4021C13.4163 12.3171 13.4223 12.2329 13.4318 12.1497L13.4355 12.1146L13.4385 12.0862C13.5191 11.2621 13.9758 10.5434 14.6413 10.112C14.691 10.079 14.7418 10.0476 14.7937 10.0178C14.8445 9.9877 14.8963 9.9592 14.9491 9.93231C15.2757 9.75995 15.6402 9.64823 16.0282 9.61251C18.6707 9.36927 21.3299 9.36927 23.9723 9.61252C24.3597 9.64817 24.7237 9.75959 25.0499 9.93149C25.1027 9.95834 25.1545 9.9868 25.2053 10.0168C25.2589 10.0475 25.3113 10.08 25.3624 10.1141C26.0244 10.5444 26.4791 11.2595 26.5614 12.0794L26.5692 12.1537C26.5785 12.2356 26.5843 12.3184 26.5865 12.4021L26.7505 18.5001ZM25.0745 12.3208L25.2315 19.1874L25.1043 23.9177C25.0757 24.981 24.2566 25.8551 23.1973 25.9526C21.0704 26.1484 18.9301 26.1484 16.8032 25.9526C15.744 25.8551 14.9248 24.981 14.8962 23.9177L14.7691 19.188L14.926 12.3208C14.9264 12.306 14.927 12.2913 14.9279 12.2766C14.9874 11.8744 15.2205 11.5271 15.551 11.3162C15.6763 11.251 15.8152 11.2077 15.963 11.1917C18.6467 10.901 21.3539 10.901 24.0376 11.1917C24.1853 11.2077 24.3242 11.2509 24.4494 11.3162C24.7801 11.5271 25.0133 11.8745 25.0727 12.277C25.0736 12.2915 25.0742 12.3061 25.0745 12.3208ZM20.0003 29.7001C20.8287 29.7001 21.5003 29.0285 21.5003 28.2001C21.5003 27.3716 20.8287 26.7001 20.0003 26.7001C19.1719 26.7001 18.5003 27.3716 18.5003 28.2001C18.5003 29.0285 19.1719 29.7001 20.0003 29.7001Z" fill="#CC4242"/>
</svg>
