<svg width="15" height="15" viewBox="0 0 15 15" fill="none" xmlns="http://www.w3.org/2000/svg">
<path fill-rule="evenodd" clip-rule="evenodd" d="M13.6586 5.76694C14.6505 6.53444 14.6505 8.03184 13.6586 8.79934C10.6611 11.1187 7.31392 12.9469 3.74237 14.2153L3.0899 14.4471C1.84162 14.8904 0.52311 14.0459 0.35412 12.7573C-0.11804 9.15714 -0.11804 5.40914 0.35412 1.80894C0.52311 0.520394 1.84163 -0.324166 3.0899 0.119174L3.74237 0.350914C7.31392 1.61939 10.6611 3.44754 13.6586 5.76694ZM12.7407 7.61304C12.9565 7.44604 12.9565 7.12024 12.7407 6.95324C9.86892 4.73116 6.66212 2.97968 3.24035 1.7644L2.58788 1.53267C2.26293 1.41726 1.88949 1.63721 1.84139 2.00399C1.38621 5.47474 1.38621 9.09154 1.84139 12.5623C1.88949 12.929 2.26293 13.149 2.58787 13.0336L3.24035 12.8019C6.66212 11.5866 9.86892 9.83514 12.7407 7.61304Z" fill="#737373"/>
</svg>
