<svg width="18" height="15" viewBox="0 0 18 15" fill="none" xmlns="http://www.w3.org/2000/svg">
<path fill-rule="evenodd" clip-rule="evenodd" d="M0 4.7798C0 2.0793 2.36914 0 5.15 0C6.58347 0 7.8448 0.67214 8.75 1.54183C9.6552 0.67214 10.9165 0 12.35 0C15.1309 0 17.5 2.0793 17.5 4.7798C17.5 6.6297 16.7111 8.2564 15.6182 9.6315C14.5271 11.0043 13.1 12.1693 11.7335 13.116C11.2115 13.4776 10.6835 13.8111 10.2003 14.0572C9.7465 14.2883 9.2247 14.5 8.75 14.5C8.2753 14.5 7.7535 14.2883 7.2997 14.0572C6.8165 13.8111 6.28846 13.4776 5.76653 13.116C4.40005 12.1693 2.97287 11.0043 1.88182 9.6315C0.78888 8.2564 0 6.6297 0 4.7798ZM5.15 1.5C3.07075 1.5 1.5 3.0291 1.5 4.7798C1.5 6.1833 2.09579 7.49 3.05609 8.6982C4.01828 9.9088 5.31292 10.9769 6.62074 11.883C7.1156 12.2258 7.5817 12.5175 7.9805 12.7206C8.4086 12.9386 8.6567 13 8.75 13C8.8433 13 9.0914 12.9386 9.5195 12.7206C9.9183 12.5175 10.3844 12.2258 10.8793 11.883C12.1871 10.9769 13.4817 9.9088 14.4439 8.6982C15.4042 7.49 16 6.1833 16 4.7798C16 3.0291 14.4292 1.5 12.35 1.5C11.1558 1.5 10.0408 2.21342 9.3446 3.11892C9.2026 3.30356 8.9829 3.41176 8.75 3.41176C8.5171 3.41176 8.2974 3.30356 8.1554 3.11892C7.4592 2.21342 6.34415 1.5 5.15 1.5Z" fill="#737373"/>
</svg>
