<svg width="18" height="19" viewBox="0 0 18 19" fill="none" xmlns="http://www.w3.org/2000/svg">
<path fill-rule="evenodd" clip-rule="evenodd" d="M10.5579 2.53423C9.68736 1.69887 8.31276 1.69887 7.44226 2.53423L2.8158 6.97357C2.70245 7.0823 2.6262 7.224 2.59786 7.3785C2.04373 10.4004 2.00283 13.494 2.47687 16.5295L2.58939 17.25H5.56585V11.0387C5.56585 10.6244 5.90164 10.2887 6.31585 10.2887H11.6843C12.0985 10.2887 12.4343 10.6244 12.4343 11.0387V17.25H15.4108L15.5233 16.5295C15.9973 13.494 15.9564 10.4004 15.4023 7.3785C15.374 7.224 15.2977 7.0823 15.1844 6.97357L10.5579 2.53423ZM6.40369 1.45191C7.85466 0.0596498 10.1455 0.0596498 11.5965 1.45191L16.2229 5.89125C16.5635 6.21804 16.7926 6.64373 16.8777 7.108C17.4622 10.2956 17.5054 13.559 17.0053 16.7609L16.8246 17.9184C16.7498 18.3971 16.3375 18.75 15.853 18.75H11.6843C11.2701 18.75 10.9343 18.4142 10.9343 18V11.7887H7.06586V18C7.06586 18.4142 6.73006 18.75 6.31585 18.75H2.14712C1.66264 18.75 1.25035 18.3971 1.1756 17.9184L0.994838 16.7609C0.494788 13.559 0.537937 10.2956 1.12247 7.108C1.2076 6.64373 1.43668 6.21804 1.77725 5.89125L6.40369 1.45191Z" fill="white"/>
</svg>
