<svg width="16" height="17" viewBox="0 0 16 17" fill="none" xmlns="http://www.w3.org/2000/svg">
<path fill-rule="evenodd" clip-rule="evenodd" d="M3.5 4.25C3.5 1.90279 5.40279 0 7.75 0C10.0972 0 12 1.90279 12 4.25C12 6.59721 10.0972 8.5 7.75 8.5C5.40279 8.5 3.5 6.59721 3.5 4.25ZM7.75 1.5C6.2312 1.5 5 2.73122 5 4.25C5 5.76878 6.2312 7 7.75 7C9.2688 7 10.5 5.76878 10.5 4.25C10.5 2.73122 9.2688 1.5 7.75 1.5Z" fill="#737373"/>
<path fill-rule="evenodd" clip-rule="evenodd" d="M3.75 11.5C2.50736 11.5 1.5 12.5074 1.5 13.75V14.9383C1.5 14.9564 1.51311 14.9718 1.53097 14.9747C5.64972 15.6472 9.8503 15.6472 13.969 14.9747C13.9869 14.9718 14 14.9564 14 14.9383V13.75C14 12.5074 12.9926 11.5 11.75 11.5H11.4091C11.3828 11.5 11.3566 11.5042 11.3315 11.5123L10.466 11.795C8.7012 12.3712 6.7988 12.3712 5.03398 11.795L4.16847 11.5123C4.14342 11.5042 4.11722 11.5 4.09087 11.5H3.75ZM0 13.75C0 11.6789 1.67893 10 3.75 10H4.09087C4.27536 10 4.45869 10.0292 4.63407 10.0864L5.49959 10.3691C6.9619 10.8465 8.5381 10.8465 10.0004 10.3691L10.8659 10.0864C11.0413 10.0292 11.2246 10 11.4091 10H11.75C13.8211 10 15.5 11.6789 15.5 13.75V14.9383C15.5 15.6915 14.9541 16.3337 14.2107 16.4551C9.9319 17.1537 5.5681 17.1537 1.28927 16.4551C0.54588 16.3337 0 15.6915 0 14.9383V13.75Z" fill="#737373"/>
</svg>
