<svg width="59" height="14" viewBox="0 0 59 14" fill="none" xmlns="http://www.w3.org/2000/svg">
<g clip-path="url(#clip0_12_2835)">
<path fill-rule="evenodd" clip-rule="evenodd" d="M24.0154 4.07925C24.1046 4.42873 24.5158 5.39952 24.6726 5.83656L24.8071 6.20722L25.09 6.93372H22.9031C22.9585 6.82782 22.98 6.72191 23.033 6.59554L23.4543 5.5019C23.5311 5.30139 23.9201 4.18021 24.0154 4.07925V4.07925ZM20.1021 10H21.7163L22.3312 8.34366H25.6696L26.2845 10H27.8987C28.0386 10 28.0063 9.93787 27.9625 9.83903C27.9187 9.74018 27.8972 9.6837 27.8564 9.58133C27.7911 9.41965 27.7127 9.25444 27.645 9.07016L24.7833 2H23.2098C23.1648 2.17223 23.1047 2.34081 23.03 2.5041L20.0575 9.82067C20.0229 9.90257 19.9268 10 20.1021 10Z" fill="#00467A"/>
<path fill-rule="evenodd" clip-rule="evenodd" d="M31.0764 8.01382H30.8175C30.1155 8.01382 29.4469 7.42431 29.4469 6.82982C29.4469 6.35808 29.4277 5.99104 29.8818 5.60904C30.024 5.49098 30.1926 5.3977 30.3779 5.33455C30.5632 5.2714 30.7616 5.23964 30.9616 5.24109C31.1615 5.24253 31.3592 5.27716 31.5432 5.34298C31.7272 5.40881 31.8938 5.50452 32.0336 5.62462C32.6087 6.10695 32.6213 7.15261 32.0225 7.65363L31.9416 7.70972C31.7109 7.88233 31.4489 8.01257 31.0794 8.01257L31.0764 8.01382ZM29.4098 4.56027C29.3616 4.38641 29.2028 4.21753 29.1872 4.06174H28V11H29.5582V8.7909C30.2847 9.19969 30.4806 9.25764 31.3391 9.25764C32.7252 9.25764 34 8.00509 34 6.83106C34 6.11505 33.9533 5.70065 33.4591 5.07687L33.1548 4.74098C33.1059 4.68866 33.0458 4.64449 32.9775 4.61074C32.887 4.55466 32.8669 4.51852 32.7786 4.46679C31.9142 3.96266 31.118 3.86482 30.1422 4.18326C29.6785 4.33531 29.6629 4.41819 29.4098 4.56027V4.56027Z" fill="#00467A"/>
<path fill-rule="evenodd" clip-rule="evenodd" d="M38.0775 5.41074C38.2611 5.41401 38.4433 5.44254 38.6184 5.49544C38.6951 5.52494 38.7695 5.55966 38.841 5.59935C38.9686 5.6627 38.9359 5.66341 39.0317 5.73671C39.2594 5.91038 39.4939 6.25343 39.5198 6.54738H36.63C36.7784 5.9239 37.277 5.40861 38.0746 5.40861L38.0775 5.41074ZM35.003 6.97656C35.0098 7.19163 35.0347 7.40584 35.0772 7.61712C35.1185 7.80221 35.1781 7.9831 35.2552 8.15732C35.6551 9.14378 36.8133 10 37.852 10C38.7527 10 39.1303 9.92883 39.8827 9.39004C40.0937 9.23853 40.2785 9.05598 40.4302 8.84913C40.5445 8.69824 40.77 8.33739 40.8153 8.15234C40.3286 8.15234 39.8144 8.13668 39.3314 8.15234C39.0628 8.16017 39.2409 8.21711 38.8647 8.41568C38.3728 8.67546 37.5693 8.65127 37.1204 8.28828C37.0226 8.20239 36.9394 8.10223 36.8741 7.99149C36.7898 7.86877 36.732 7.73106 36.7042 7.58651H40.9629L41 6.76944C41 5.81856 40.4717 5.08192 39.8619 4.59225C39.0576 3.94671 37.7845 3.8129 36.8392 4.26983C36.334 4.51467 35.8918 4.84563 35.578 5.29829C35.2448 5.77017 35 6.37443 35 6.97371L35.003 6.97656Z" fill="#00467A"/>
<path fill-rule="evenodd" clip-rule="evenodd" d="M54.4696 4.60521C54.4242 4.42953 54.277 4.24813 54.2309 4.07102H53V9.98845H54.5491C54.7345 9.98845 54.6685 9.71279 54.6685 9.38285V7.20827C54.6685 6.48984 54.5969 6.06135 55.1737 5.665C55.4582 5.47573 55.8131 5.39235 56.1645 5.43227C56.5158 5.47219 56.8364 5.63231 57.0594 5.87925C57.3466 6.2049 57.3291 6.56483 57.3291 7.134V9.70065C57.3243 10.0949 57.1883 9.98631 59 9.98631V6.42343C59.0022 5.94108 58.8566 5.46747 58.5791 5.05441C57.7492 3.82822 55.8866 3.70395 54.6868 4.51308C54.5658 4.59307 54.6398 4.59307 54.4696 4.60521Z" fill="#00467A"/>
<path fill-rule="evenodd" clip-rule="evenodd" d="M45.1561 5.66875C45.1561 6.17956 45.1654 6.44313 45.5876 6.83032C46.5966 7.75388 48.381 7.50097 48.381 8.15102C48.381 8.45224 48.1172 8.6668 47.8595 8.73358C47.6243 8.80247 47.3718 8.80247 47.1366 8.73358C46.589 8.59646 46.6443 8.08069 46.4613 8.08069H45C45.1046 9.24012 46.0698 9.99887 47.3842 9.99887C47.9118 9.99887 48.1895 10.0244 48.7017 9.83262C49.7015 9.45751 50.2537 8.58367 49.8853 7.61748C49.7874 7.39477 49.6328 7.19714 49.4346 7.04132C48.7609 6.58238 48.5748 6.55964 47.6918 6.34651C47.1935 6.22573 46.7689 6.12343 46.7689 5.77816C46.7689 5.04925 48.1925 5.06772 48.384 5.81368H49.9222C49.9161 5.54585 49.7792 5.24533 49.6669 5.05636C49.4051 4.61027 48.9626 4.27818 48.4363 4.13279C47.5619 3.89266 46.6328 3.9637 45.8875 4.46527C45.6966 4.59552 45.5328 4.75653 45.4038 4.94055C45.293 5.10182 45.1561 5.42294 45.1561 5.66875Z" fill="#00467A"/>
<path fill-rule="evenodd" clip-rule="evenodd" d="M42.0029 9.8948C42.0029 9.976 42.0362 10 42.1457 10H44V2H42L42.0029 9.8948Z" fill="#00467A"/>
<path fill-rule="evenodd" clip-rule="evenodd" d="M50.0029 10H51.8571C51.9667 10 52 9.97538 52 9.89211V4H50L50.0029 10Z" fill="#00467A"/>
<path fill-rule="evenodd" clip-rule="evenodd" d="M50 2.97887C50 3.69512 50.8622 4.3875 51.6563 3.74628C52.2583 3.26026 52.101 2 50.9336 2C50.6275 2 50.4685 2.14666 50.3069 2.30867C50.2117 2.40502 50.1556 2.43145 50.0995 2.56447C50.0406 2.69509 50.0068 2.83569 50 2.97887V2.97887Z" fill="#00467A"/>
<path d="M12.0119 0H2.98813C1.33783 0 0 1.24864 0 2.78892V11.2111C0 12.7514 1.33783 14 2.98813 14H12.0119C13.6622 14 15 12.7514 15 11.2111V2.78892C15 1.24864 13.6622 0 12.0119 0Z" fill="url(#paint0_linear_12_2835)"/>
<path d="M13 10C13.5523 10 14 9.55228 14 9C14 8.44772 13.5523 8 13 8C12.4477 8 12 8.44772 12 9C12 9.55228 12.4477 10 13 10Z" fill="white"/>
<path d="M1.5 11C1.77614 11 2 10.7761 2 10.5C2 10.2239 1.77614 10 1.5 10C1.22386 10 1 10.2239 1 10.5C1 10.7761 1.22386 11 1.5 11Z" fill="#D64412"/>
<path d="M3.5 12C3.77614 12 4 11.7761 4 11.5C4 11.2239 3.77614 11 3.5 11C3.22386 11 3 11.2239 3 11.5C3 11.7761 3.22386 12 3.5 12Z" fill="#D64412"/>
<path d="M1.5 12C1.77614 12 2 11.7761 2 11.5C2 11.2239 1.77614 11 1.5 11C1.22386 11 1 11.2239 1 11.5C1 11.7761 1.22386 12 1.5 12Z" fill="#D64412"/>
<path d="M3.5 13C3.77614 13 4 12.7761 4 12.5C4 12.2239 3.77614 12 3.5 12C3.22386 12 3 12.2239 3 12.5C3 12.7761 3.22386 13 3.5 13Z" fill="#D64412"/>
<path fill-rule="evenodd" clip-rule="evenodd" d="M14 4C13.5588 3.81354 13.0845 3.71787 12.6055 3.71869H3L10.2961 0.166574C10.4902 0.0719018 10.7012 0.0163528 10.9168 0.00310107C11.1325 -0.0101506 11.3486 0.019156 11.5529 0.0893444C11.7573 0.159533 11.9457 0.269228 12.1075 0.412157C12.2693 0.555086 12.4013 0.728447 12.496 0.922329L14 4Z" fill="#8AC43E"/>
<path fill-rule="evenodd" clip-rule="evenodd" d="M14 4C13.9053 3.9601 13.8061 3.92415 13.7024 3.89216C13.2733 3.7542 12.8119 3.68341 12.3459 3.68402H3L11.7053 2.03619C11.9091 1.99753 12.1211 1.98975 12.3289 2.0133C12.5368 2.03686 12.7365 2.09128 12.9166 2.17345C13.0967 2.25563 13.2538 2.36395 13.3787 2.49222C13.5037 2.6205 13.5941 2.76621 13.6449 2.92103L14 4Z" fill="#209245"/>
<path d="M15 5.29229V7C14.8588 6.3721 14.5178 5.81223 14.0322 5.41126C13.5466 5.01029 12.9449 4.79176 12.3249 4.79111H2.397C2.34569 4.79343 2.29446 4.78491 2.2464 4.76609C2.19834 4.74726 2.15444 4.71851 2.11734 4.68157C2.08025 4.64463 2.05073 4.60026 2.03056 4.55114C2.0104 4.50201 2 4.44915 2 4.39574C2 4.34233 2.0104 4.28947 2.03056 4.24035C2.05073 4.19123 2.08025 4.14686 2.11734 4.10991C2.15444 4.07297 2.19834 4.04422 2.2464 4.0254C2.29446 4.00657 2.34569 3.99806 2.397 4.00037H12.3249C12.8344 4.00015 13.3377 4.11565 13.7998 4.3388C14.2618 4.56195 14.6715 4.88736 15 5.29229V5.29229Z" fill="white"/>
</g>
<defs>
<linearGradient id="paint0_linear_12_2835" x1="0.875411" y1="13.1829" x2="13.2119" y2="-0.0347573" gradientUnits="userSpaceOnUse">
<stop stop-color="#E63C06"/>
<stop offset="1" stop-color="#F7BE4C"/>
</linearGradient>
<clipPath id="clip0_12_2835">
<rect width="59" height="14" fill="white"/>
</clipPath>
</defs>
</svg>
