<svg width="60" height="60" viewBox="0 0 60 60" fill="none" xmlns="http://www.w3.org/2000/svg">
<circle cx="30" cy="30" r="29.5" stroke="#CC4242"/>
<path fill-rule="evenodd" clip-rule="evenodd" d="M25.1478 21.0383C25.562 21.0383 25.8978 21.374 25.8978 21.7883V23.4559C28.7255 23.2041 31.5701 23.2041 34.3978 23.4559V21.7883C34.3978 21.374 34.7336 21.0383 35.1478 21.0383C35.562 21.0383 35.8978 21.374 35.8978 21.7883V23.6047C37.3908 23.8158 38.5704 24.9967 38.77 26.5031L38.8566 27.156C39.2206 29.9024 39.1892 32.6867 38.7632 35.4242C38.5522 36.7802 37.4506 37.8218 36.0848 37.9564L34.8918 38.0741C31.7368 38.3852 28.5588 38.3852 25.4037 38.0741L24.2107 37.9564C22.8449 37.8218 21.7433 36.7802 21.5323 35.4242C21.1063 32.6867 21.0749 29.9024 21.4389 27.156L21.5255 26.5031C21.7251 24.9967 22.9047 23.8158 24.3978 23.6047V21.7883C24.3978 21.374 24.7336 21.0383 25.1478 21.0383ZM25.5929 24.9911C28.6222 24.6923 31.6734 24.6923 34.7026 24.9911L35.608 25.0804C36.4748 25.1658 37.1686 25.8368 37.283 26.7002L37.3696 27.3531C37.3998 27.5813 37.4272 27.8097 37.4517 28.0383H22.8438C22.8683 27.8097 22.8957 27.5813 22.9259 27.3532L23.0125 26.7002C23.1269 25.8368 23.8207 25.1658 24.6875 25.0804L25.5929 24.9911ZM22.7246 29.5383C22.6264 31.4264 22.7231 33.3215 23.0144 35.1935C23.1203 35.8737 23.6729 36.3961 24.3579 36.4637L25.5509 36.5813C28.6081 36.8828 31.6875 36.8828 34.7446 36.5813L35.9376 36.4637C36.6226 36.3961 37.1752 35.8737 37.2811 35.1935C37.5724 33.3215 37.6691 31.4264 37.5709 29.5383H22.7246Z" fill="#CC4242"/>
</svg>
