<svg width="58" height="16" viewBox="0 0 58 16" fill="none" xmlns="http://www.w3.org/2000/svg">
<g clip-path="url(#clip0_12_2820)">
<path d="M8.17479 15.9999C5.37097 16.0171 1.57071 12.3448 0.492092 9.95901V9.95044L0.470272 9.90187C-0.0766738 8.62325 -0.203955 7.55179 0.39754 6.15102C1.31251 4.01238 5.9201 -0.955653 9.24468 0.161529C11.6208 0.959414 21.3786 6.80462 12.0143 14.2013C10.8142 15.1428 9.6018 15.9921 8.17479 15.9999ZM3.97378 9.34685C5.05458 11.2041 7.48747 13.372 9.39597 12.1698C13.2959 9.71329 13.242 7.34321 11.1466 5.29742C8.71228 2.92163 7.18564 3.32664 5.24441 5.31457C4.78475 5.7853 4.39708 6.09388 3.93523 6.97177C3.60285 7.60679 3.53448 8.59397 3.97378 9.34756V9.34685Z" fill="#53B7D1"/>
<path d="M25.6953 11.3101C26.059 11.3101 26.3944 11.3032 26.7015 11.2894C27.0087 11.2756 27.3245 11.2456 27.6488 11.1995C27.6717 11.194 27.6955 11.1929 27.7188 11.1963C27.7421 11.1998 27.7644 11.2076 27.7845 11.2195C27.8046 11.2313 27.822 11.2469 27.8357 11.2653C27.8495 11.2837 27.8592 11.3046 27.8645 11.3267C27.8695 11.3495 27.8695 11.3731 27.8645 11.3958V12.4326C27.8645 12.5515 27.788 12.6343 27.6352 12.6808C27.26 12.7923 26.8751 12.8707 26.4852 12.9151C26.0714 12.969 25.6544 12.9967 25.2368 12.9981C24.5656 13.0161 23.8972 12.9083 23.2689 12.6808C22.7588 12.4868 22.3091 12.17 21.963 11.7608C21.6112 11.3274 21.3613 10.8258 21.2306 10.2906C21.0698 9.6444 20.9925 8.98159 21.0006 8.31719V7.68266C20.9926 7.01867 21.0674 6.35615 21.2234 5.70926C21.3494 5.17491 21.5946 4.67327 21.9421 4.23906C22.2845 3.82917 22.7321 3.51229 23.2409 3.31975C23.8692 3.09233 24.5376 2.98458 25.2087 3.00249C25.99 3.00767 26.7658 3.12867 27.5087 3.36123C27.5747 3.37688 27.6345 3.41047 27.6812 3.458C27.7121 3.50295 27.7272 3.55624 27.7243 3.61006V4.60402C27.7318 4.64824 27.721 4.69354 27.6941 4.73014C27.6672 4.76673 27.6264 4.79169 27.5806 4.79963C27.5569 4.80451 27.5324 4.80451 27.5087 4.79963C27.2404 4.76369 26.9486 4.73604 26.6333 4.71669C26.318 4.69733 25.9974 4.68835 25.6716 4.68973C25.278 4.67927 24.886 4.74023 24.5159 4.86944C24.2127 4.98326 23.9508 5.18008 23.7627 5.43554C23.5556 5.72811 23.4161 6.05998 23.3537 6.40877C23.2656 6.8662 23.2247 7.33087 23.2315 7.79602V8.22388C23.2246 8.68714 23.2667 9.14987 23.3573 9.60492C23.4243 9.95303 23.5687 10.2831 23.7806 10.5726C23.9766 10.8251 24.243 11.019 24.5489 11.1318C24.9173 11.26 25.3073 11.3207 25.6989 11.3108L25.6953 11.3101ZM29.5283 3.3868C29.5283 3.23888 29.6002 3.16561 29.7439 3.16561H31.5235C31.5767 3.15831 31.6307 3.17161 31.6737 3.20258C31.7167 3.23356 31.7451 3.27968 31.7528 3.33081C31.7557 3.34937 31.7557 3.36824 31.7528 3.3868V10.5228C31.7371 10.7304 31.7872 10.9377 31.8965 11.1173C31.972 11.1916 32.0646 11.2479 32.1669 11.2815C32.2691 11.3151 32.3782 11.3251 32.4852 11.3108H35.8862C35.9126 11.3071 35.9394 11.3084 35.9652 11.3147C35.991 11.3211 36.0153 11.3322 36.0366 11.3476C36.0579 11.3629 36.0758 11.3822 36.0894 11.4042C36.1029 11.4263 36.1118 11.4507 36.1155 11.476C36.1184 11.4943 36.1184 11.513 36.1155 11.5313V12.5529C36.1155 12.7276 36.0343 12.8197 35.8718 12.8294C35.3448 12.8755 34.742 12.9147 34.0635 12.9469C33.385 12.9792 32.6816 12.9953 31.9533 12.9953C31.5697 13.0021 31.1865 12.965 30.812 12.8847C30.5351 12.8274 30.2765 12.7069 30.058 12.5336C29.8626 12.3656 29.7208 12.1477 29.6491 11.9053C29.5607 11.5951 29.5197 11.2743 29.5276 10.9528L29.5283 3.3868ZM39.6768 12.5937C39.6816 12.6256 39.6786 12.6582 39.6681 12.6888C39.6575 12.7195 39.6396 12.7473 39.6159 12.7701C39.5922 12.793 39.5632 12.8101 39.5314 12.8203C39.4995 12.8305 39.4656 12.8334 39.4324 12.8287H37.696C37.6679 12.8326 37.6394 12.8312 37.6119 12.8245C37.5845 12.8178 37.5587 12.8059 37.536 12.7896C37.5133 12.7733 37.4941 12.7529 37.4797 12.7295C37.4652 12.706 37.4557 12.6801 37.4516 12.6531C37.4487 12.6334 37.4487 12.6134 37.4516 12.5937V3.41445C37.4516 3.24856 37.5331 3.16561 37.696 3.16561H39.4324C39.5953 3.16561 39.6768 3.24856 39.6768 3.41445V12.5937ZM46.3941 11.3101C46.7587 11.3101 47.0941 11.3032 47.4003 11.2894C47.7065 11.2756 48.0222 11.2456 48.3476 11.1995C48.3704 11.194 48.3942 11.1929 48.4175 11.1963C48.4408 11.1998 48.4631 11.2076 48.4832 11.2195C48.5033 11.2313 48.5207 11.2469 48.5345 11.2653C48.5482 11.2837 48.558 11.3046 48.5632 11.3267C48.5675 11.3484 48.5675 11.3707 48.5632 11.3924V12.4292C48.5632 12.5488 48.487 12.6317 48.3332 12.678C47.958 12.7893 47.5731 12.8677 47.1832 12.9123C46.7691 12.9656 46.3519 12.9933 45.9341 12.9953C45.2631 13.0126 44.5951 12.9046 43.9669 12.6773C43.4573 12.4843 43.0076 12.1687 42.661 11.7608C42.3102 11.3271 42.0611 10.8256 41.9307 10.2906C41.7699 9.6444 41.6927 8.98159 41.7007 8.31719V7.68197C41.6928 7.01798 41.7676 6.35546 41.9236 5.70857C42.0498 5.17431 42.295 4.67273 42.6423 4.23837C42.9847 3.82869 43.4324 3.51204 43.941 3.31975C44.5692 3.09246 45.2373 2.98448 45.9082 3.0018C46.6895 3.00688 47.4653 3.12812 48.2081 3.36123C48.2741 3.37688 48.334 3.41047 48.3806 3.458C48.4115 3.50272 48.4266 3.55578 48.4238 3.60937V4.59987C48.4313 4.6441 48.4204 4.68939 48.3935 4.72599C48.3667 4.76259 48.3259 4.78755 48.28 4.79549C48.2563 4.79999 48.2319 4.79999 48.2081 4.79549C47.9398 4.75954 47.648 4.73189 47.3327 4.71254C47.0174 4.69319 46.6969 4.6842 46.3711 4.68558C45.9775 4.6745 45.5854 4.73524 45.2153 4.86461C44.9121 4.97866 44.65 5.17541 44.4614 5.43071C44.2554 5.72385 44.1161 6.05548 44.0524 6.40393C43.9649 6.86165 43.9243 7.32652 43.931 7.79188V8.21973C43.9237 8.68415 43.9659 9.14806 44.0568 9.60422C44.1234 9.95244 44.2678 10.2826 44.4801 10.5719C44.6759 10.8245 44.9424 11.0182 45.2484 11.1304C45.6166 11.2592 46.0067 11.3202 46.3984 11.3101H46.3941ZM57.4331 3.16561C57.4648 3.1626 57.4968 3.16883 57.5249 3.18349C57.553 3.19816 57.5758 3.22058 57.5905 3.24787C57.6042 3.27725 57.6089 3.30982 57.6039 3.34169C57.5989 3.37355 57.5845 3.40337 57.5624 3.42758L54.4906 7.82091L57.9649 12.5833C57.9834 12.6054 57.9951 12.6319 57.9988 12.66C58.0024 12.6881 57.9979 12.7166 57.9858 12.7423C57.9724 12.7726 57.9491 12.7978 57.9193 12.8139C57.8895 12.83 57.855 12.8362 57.8212 12.8315H55.7972C55.7139 12.8357 55.6306 12.8217 55.5536 12.7907C55.4875 12.7548 55.4328 12.7022 55.3955 12.6386L52.453 8.33171V12.5972C52.461 12.6516 52.4462 12.7069 52.4118 12.7508C52.3774 12.7948 52.3263 12.8238 52.2697 12.8315C52.2497 12.8342 52.2293 12.8342 52.2093 12.8315H50.4721C50.4155 12.8392 50.3581 12.8249 50.3124 12.7919C50.2667 12.7588 50.2365 12.7097 50.2285 12.6552C50.2249 12.636 50.2249 12.6164 50.2285 12.5972V3.41376C50.2285 3.24787 50.3097 3.16492 50.4721 3.16492H52.2093C52.3718 3.16492 52.453 3.24787 52.453 3.41376V7.30595L55.1971 3.32805C55.2337 3.27655 55.283 3.23454 55.3405 3.20572C55.3981 3.17691 55.4621 3.16218 55.527 3.16285L57.4331 3.16561Z" fill="#141521"/>
</g>
<defs>
<clipPath id="clip0_12_2820">
<rect width="58" height="16" fill="white"/>
</clipPath>
</defs>
</svg>
