<svg width="18" height="18" viewBox="0 0 18 18" fill="none" xmlns="http://www.w3.org/2000/svg">
<path d="M1.94731 17.2496C1.64079 17.2496 1.33427 17.1327 1.10061 16.8989C0.633128 16.4314 0.633128 15.6734 1.10061 15.2053L15.2058 1.10061C15.6733 0.633128 16.4313 0.633128 16.8993 1.10061C17.3668 1.5681 17.3668 2.32617 16.8993 2.79418L2.79374 16.8989C2.55992 17.1327 2.25392 17.2496 1.9474 17.2496H1.94731Z" fill="black"/>
<path d="M16.052 17.25C15.7455 17.25 15.439 17.1332 15.2053 16.8994L1.10061 2.79418C0.633128 2.32669 0.633128 1.56863 1.10061 1.10061C1.5681 0.633128 2.32617 0.633128 2.79418 1.10061L16.8994 15.2058C17.3668 15.6733 17.3668 16.4313 16.8994 16.8994C16.665 17.133 16.3585 17.2498 16.052 17.2498L16.052 17.25Z" fill="black"/>
</svg>
