<svg width="18" height="18" viewBox="0 0 18 18" fill="none" xmlns="http://www.w3.org/2000/svg">
<path fill-rule="evenodd" clip-rule="evenodd" d="M3.44387 11.4782C1.75796 7.34006 4.8023 2.8125 9.27064 2.8125H9.51169C12.8535 2.8125 15.5625 5.52151 15.5625 8.8632C15.5625 12.5839 12.5463 15.6 8.82566 15.6H2.96048C2.72179 15.6 2.50908 15.4493 2.42987 15.2242C2.35064 14.999 2.42216 14.7484 2.60826 14.5989L4.08688 13.4114C4.15154 13.3595 4.1744 13.2713 4.14311 13.1945L3.44387 11.4782ZM9.27064 3.9375C5.60126 3.9375 3.10127 7.65555 4.48572 11.0537L5.18497 12.7701C5.40397 13.3076 5.24388 13.9252 4.79132 14.2886L4.55923 14.475H8.82566C11.925 14.475 14.4375 11.9625 14.4375 8.8632C14.4375 6.14283 12.2322 3.9375 9.51169 3.9375H9.27064Z" fill="#BBB5B5"/>
</svg>
