<svg width="24" height="24" viewBox="0 0 24 24" fill="none" xmlns="http://www.w3.org/2000/svg">
<path fill-rule="evenodd" clip-rule="evenodd" d="M10.7387 3.25C9.96503 3.25 9.31971 3.84123 9.25215 4.61189C9.11091 6.22317 9.07517 7.84164 9.14503 9.45693C9.0607 9.46258 8.97638 9.46847 8.89207 9.47462L7.40257 9.5832C6.45052 9.6526 5.91831 10.7142 6.4323 11.5185C7.52847 13.2341 8.94093 14.7254 10.5944 15.9132L11.1911 16.3418C11.675 16.6894 12.3266 16.6894 12.8104 16.3418L13.4072 15.9132C15.0606 14.7254 16.4731 13.2341 17.5692 11.5185C18.0832 10.7142 17.551 9.6526 16.599 9.5832L15.1095 9.47462C15.0252 9.46847 14.9408 9.46258 14.8565 9.45693C14.9264 7.84164 14.8906 6.22317 14.7494 4.61188C14.6818 3.84123 14.0365 3.25 13.2629 3.25H10.7387ZM10.6823 10.1147C10.5686 8.3275 10.5898 6.53417 10.7458 4.75H13.2557C13.4118 6.53417 13.433 8.3275 13.3193 10.1147C13.3065 10.3151 13.3747 10.5122 13.5084 10.662C13.6421 10.8117 13.8303 10.9016 14.0309 10.9114C14.3542 10.9274 14.6774 10.9471 15.0004 10.9707L16.0822 11.0495C15.1226 12.4628 13.9211 13.6971 12.532 14.6949L12.0008 15.0765L11.4695 14.6949C10.0804 13.6971 8.87891 12.4628 7.91937 11.0495L9.00113 10.9707C9.32412 10.9471 9.64731 10.9274 9.97066 10.9114C10.1712 10.9016 10.3594 10.8117 10.4932 10.662C10.6269 10.5122 10.695 10.3151 10.6823 10.1147Z" fill="#BBB5B5"/>
<path d="M5.75 17C5.75 16.5858 5.41421 16.25 5 16.25C4.58579 16.25 4.25 16.5858 4.25 17V19C4.25 19.9665 5.0335 20.75 6 20.75H18C18.9665 20.75 19.75 19.9665 19.75 19V17C19.75 16.5858 19.4142 16.25 19 16.25C18.5858 16.25 18.25 16.5858 18.25 17V19C18.25 19.1381 18.1381 19.25 18 19.25H6C5.86193 19.25 5.75 19.1381 5.75 19V17Z" fill="#BBB5B5"/>
</svg>
