<svg width="24" height="24" viewBox="0 0 24 24" fill="none" xmlns="http://www.w3.org/2000/svg">
<path fill-rule="evenodd" clip-rule="evenodd" d="M15.1368 3.46967C14.9962 3.32902 14.8054 3.25 14.6065 3.25C14.4076 3.25 14.2168 3.32902 14.0762 3.46967L4.88375 12.6621C4.78952 12.7563 4.7221 12.8739 4.68843 13.0028L3.68843 16.8313C3.62114 17.0889 3.69547 17.3629 3.88374 17.5511C4.07201 17.7394 4.34601 17.8138 4.60362 17.7465L8.43205 16.7465C8.56098 16.7128 8.67861 16.6454 8.77284 16.5511L17.9653 7.35876C18.2581 7.06586 18.2581 6.59099 17.9653 6.2981L15.1368 3.46967ZM6.08829 13.5788L14.6065 5.06066L16.3743 6.82843L7.85607 15.3466L5.4633 15.9716L6.08829 13.5788Z" fill="#BBB5B5"/>
<path d="M4 19.25C3.58579 19.25 3.25 19.5858 3.25 20C3.25 20.4142 3.58579 20.75 4 20.75H19C19.4142 20.75 19.75 20.4142 19.75 20C19.75 19.5858 19.4142 19.25 19 19.25H4Z" fill="#BBB5B5"/>
</svg>
