<svg width="24" height="24" viewBox="0 0 24 24" fill="none" xmlns="http://www.w3.org/2000/svg">
<path d="M6.8466 4.22221C6.8466 3.78499 6.49216 3.43054 6.05494 3.43054C5.61771 3.43054 5.26327 3.78499 5.26327 4.22221V6.13955C3.68725 6.36236 2.44217 7.60891 2.2314 9.19898L2.14004 9.88821C2.12454 10.0051 2.10973 10.122 2.0956 10.239C2.05812 10.5493 2.30258 10.8194 2.61514 10.8194H20.0502C20.3628 10.8194 20.6072 10.5493 20.5698 10.239C20.5556 10.122 20.5409 10.0051 20.5253 9.88821L20.4339 9.19898C20.2232 7.60893 18.9781 6.36239 17.4022 6.13956V4.22221C17.4022 3.78499 17.0477 3.43054 16.6105 3.43054C16.1733 3.43054 15.8188 3.78499 15.8188 4.22221V5.98249C12.834 5.71666 9.8314 5.71666 6.8466 5.98249V4.22221Z" fill="#C3C8CF"/>
<path d="M20.7746 12.9048C20.7653 12.6235 20.5329 12.4028 20.2516 12.4028H2.41453C2.13314 12.4028 1.90075 12.6235 1.89151 12.9048C1.82882 14.8128 1.94472 16.7248 2.23893 18.6157C2.46166 20.047 3.62453 21.1465 5.06614 21.2885L6.32543 21.4128C9.65578 21.7412 13.0103 21.7412 16.3406 21.4128L17.5999 21.2885C19.0416 21.1465 20.2044 20.047 20.4271 18.6157C20.7214 16.7248 20.8373 14.8128 20.7746 12.9048Z" fill="#C3C8CF"/>
</svg>
