<svg width="24" height="24" viewBox="0 0 24 24" fill="none" xmlns="http://www.w3.org/2000/svg">
<rect width="24" height="24" rx="4" fill="black"/>
<path d="M9.12 6C6.89531 6 5 7.7208 5 9.95569C5 11.4974 5.69788 12.7955 6.62279 13.8707C7.54453 14.9422 8.73371 15.8416 9.80878 16.5944L11.6637 17.8933C11.8668 18.0356 12.1332 18.0356 12.3363 17.8933L14.1912 16.5944C15.2663 15.8416 16.4554 14.9422 17.3772 13.8707C18.3022 12.7955 19 11.4974 19 9.95569C19 7.7208 17.1047 6 14.88 6C13.7332 6 12.7242 6.55625 12 7.276C11.2758 6.55625 10.2668 6 9.12 6Z" fill="white"/>
</svg>
