<svg width="32" height="32" viewBox="0 0 32 32" fill="none" xmlns="http://www.w3.org/2000/svg">
<rect width="32" height="32" rx="8" fill="#F5F5F5"/>
<path fill-rule="evenodd" clip-rule="evenodd" d="M7 13.7798C7 11.0793 9.36914 9 12.15 9C13.5835 9 14.8448 9.67214 15.75 10.5418C16.6552 9.67214 17.9165 9 19.35 9C22.1309 9 24.5 11.0793 24.5 13.7798C24.5 15.6297 23.7111 17.2564 22.6182 18.6315C21.5271 20.0043 20.1 21.1693 18.7335 22.116C18.2115 22.4776 17.6835 22.8111 17.2003 23.0572C16.7465 23.2883 16.2247 23.5 15.75 23.5C15.2753 23.5 14.7535 23.2883 14.2997 23.0572C13.8165 22.8111 13.2885 22.4776 12.7665 22.116C11.4001 21.1693 9.97287 20.0043 8.88182 18.6315C7.78888 17.2564 7 15.6297 7 13.7798ZM12.15 10.5C10.0707 10.5 8.5 12.0291 8.5 13.7798C8.5 15.1833 9.09579 16.49 10.0561 17.6982C11.0183 18.9088 12.3129 19.9769 13.6207 20.883C14.1156 21.2258 14.5817 21.5175 14.9805 21.7206C15.4086 21.9386 15.6567 22 15.75 22C15.8433 22 16.0914 21.9386 16.5195 21.7206C16.9183 21.5175 17.3844 21.2258 17.8793 20.883C19.1871 19.9769 20.4817 18.9088 21.4439 17.6982C22.4042 16.49 23 15.1833 23 13.7798C23 12.0291 21.4292 10.5 19.35 10.5C18.1558 10.5 17.0408 11.2134 16.3446 12.1189C16.2026 12.3036 15.9829 12.4118 15.75 12.4118C15.5171 12.4118 15.2974 12.3036 15.1554 12.1189C14.4592 11.2134 13.3441 10.5 12.15 10.5Z" fill="#737373"/>
</svg>
