<svg width="32" height="32" viewBox="0 0 32 32" fill="none" xmlns="http://www.w3.org/2000/svg">
<rect width="32" height="32" rx="8" fill="#F5F5F5"/>
  <path fill-rule="" clip-rule="evenodd" d="M 17.537 8.108 C 16.666 7.273 15.292 7.273 14.421 8.108 L 9.795 12.548 C 9.681 12.656 9.605 12.798 9.577 12.952 C 9.022 15.974 8.982 19.068 9.456 22.103 L 9.568 22.824 L 12.545 22.824 L 12.545 16.613 C 12.545 16.198 12.88 15.863 13.295 15.863 L 18.663 15.863 C 19.077 15.863 19.413 16.198 19.413 16.613 L 19.413 22.824 L 22.39 22.824 L 22.502 22.103 C 22.976 19.068 22.935 15.974 22.381 12.952 C 22.353 12.798 22.276 12.656 22.163 12.548 L 17.537 8.108 Z M 13.382 7.026 C 14.833 5.634 17.124 5.634 18.575 7.026 L 23.202 11.465 C 23.542 11.792 23.771 12.218 23.856 12.682 C 24.441 15.87 24.484 19.133 23.984 22.335 L 23.803 23.492 C 23.729 23.971 23.316 24.324 22.832 24.324 L 18.663 24.324 C 18.249 24.324 17.913 23.988 17.913 23.574 L 17.913 17.363 L 14.045 17.363 L 14.045 23.574 C 14.045 23.988 13.709 24.324 13.295 24.324 L 9.126 24.324 C 8.641 24.324 8.229 23.971 8.154 23.492 L 7.974 22.335 C 7.474 19.133 7.517 15.87 8.101 12.682 C 8.186 12.218 8.415 11.792 8.756 11.465 L 13.382 7.026 Z" fill="#737373"></path>

</svg>
