<svg width="18" height="18" viewBox="0 0 18 18" fill="none" xmlns="http://www.w3.org/2000/svg">
<path d="M14.2164 1.53378C14.436 1.75345 14.436 2.10961 14.2164 2.32928L13.8035 2.74212C16.2702 5.61543 16.1427 9.94882 13.4208 12.6707C12.1361 13.9555 10.4924 14.6622 8.8126 14.791V15.9375H10.1251C10.4358 15.9375 10.6876 16.1893 10.6876 16.5C10.6876 16.8106 10.4358 17.0625 10.1251 17.0625H6.3751C6.06445 17.0625 5.8126 16.8106 5.8126 16.5C5.8126 16.1893 6.06445 15.9375 6.3751 15.9375H7.6876V14.791C6.1829 14.6755 4.70706 14.0963 3.49222 13.0534L3.07939 13.4662C2.85972 13.6858 2.50356 13.6858 2.28389 13.4662C2.06422 13.2466 2.06422 12.8904 2.28389 12.6707L2.81422 12.1404C3.1858 11.7688 3.7632 11.7878 4.12493 12.112C5.29641 13.1618 6.77202 13.687 8.24785 13.6875H8.2501H8.2525C9.83523 13.6868 11.4178 13.0828 12.6253 11.8752C14.96 9.54052 15.039 5.80389 12.8621 3.37482C12.5379 3.01309 12.5189 2.43569 12.8905 2.06412L13.4208 1.53378C13.6405 1.31412 13.9967 1.31412 14.2164 1.53378Z" fill="#BBB5B5"/>
<path fill-rule="evenodd" clip-rule="evenodd" d="M3.1875 7.5C3.1875 4.70406 5.45406 2.4375 8.25 2.4375C11.0459 2.4375 13.3125 4.70406 13.3125 7.5C13.3125 10.2959 11.0459 12.5625 8.25 12.5625C5.45406 12.5625 3.1875 10.2959 3.1875 7.5ZM8.25 3.5625C6.07538 3.5625 4.3125 5.32538 4.3125 7.5C4.3125 7.7511 4.33601 7.99673 4.38094 8.23485C4.68944 7.8984 5.13259 7.6875 5.625 7.6875C6.55698 7.6875 7.3125 8.44305 7.3125 9.375C7.3125 10.0667 6.89626 10.6613 6.30057 10.9218C6.87534 11.25 7.5408 11.4375 8.25 11.4375C10.1575 11.4375 11.7482 10.0811 12.1102 8.28015C11.6088 9.05205 10.739 9.5625 9.75 9.5625C8.19667 9.5625 6.9375 8.30333 6.9375 6.75C6.9375 5.1967 8.19667 3.9375 9.75 3.9375C9.81488 3.9375 9.87923 3.9397 9.94298 3.94402C9.43013 3.69942 8.85607 3.5625 8.25 3.5625ZM8.0625 6.75C8.0625 5.81802 8.81805 5.0625 9.75 5.0625C10.682 5.0625 11.4375 5.81802 11.4375 6.75C11.4375 7.68195 10.682 8.4375 9.75 8.4375C8.81805 8.4375 8.0625 7.68195 8.0625 6.75ZM5.625 8.8125C5.31434 8.8125 5.0625 9.06435 5.0625 9.375C5.0625 9.68565 5.31434 9.9375 5.625 9.9375C5.93566 9.9375 6.1875 9.68565 6.1875 9.375C6.1875 9.06435 5.93566 8.8125 5.625 8.8125Z" fill="#BBB5B5"/>
</svg>
