<svg width="25" height="24" viewBox="0 0 25 24" fill="none" xmlns="http://www.w3.org/2000/svg">
<path d="M11.8369 3.75C11.3789 3.75001 10.9498 3.97406 10.6881 4.34991L6.45619 10.427C5.66152 11.5682 5.30733 12.9587 5.45922 14.341L5.78465 17.3024C5.92371 18.5679 6.91718 19.5703 8.18139 19.7207L10.2984 19.9725C11.9151 20.1648 13.5543 19.9981 15.0991 19.4843C16.1805 19.1246 17.0466 18.3039 17.4639 17.2435L19.1725 12.9014C19.2551 12.6914 19.3122 12.4722 19.3426 12.2485C19.6069 10.3014 17.8475 8.68822 15.9305 9.12017L12.0326 9.99848L13.1925 5.49935C13.4209 4.61335 12.7518 3.74998 11.8369 3.75Z" fill="#CC4242"/>
</svg>
