<svg width="24" height="25" viewBox="0 0 24 25" fill="none" xmlns="http://www.w3.org/2000/svg">
<path d="M12 18.584C11.5858 18.584 11.25 18.9198 11.25 19.334C11.25 19.7482 11.5858 20.084 12 20.084H18C18.9665 20.084 19.75 19.3005 19.75 18.334V6.33398C19.75 5.36748 18.9665 4.58398 18 4.58398H12C11.5858 4.58398 11.25 4.91977 11.25 5.33398C11.25 5.74819 11.5858 6.08398 12 6.08398H18C18.1381 6.08398 18.25 6.19591 18.25 6.33398V18.334C18.25 18.4721 18.1381 18.584 18 18.584H12Z" fill="#CC4242"/>
<path fill-rule="evenodd" clip-rule="evenodd" d="M14.5031 14.6992C15.1934 14.6992 15.7531 14.1396 15.7531 13.4492V11.2087C15.7531 10.5183 15.1934 9.95865 14.5031 9.95865H9.89048C9.88396 9.88523 9.87713 9.81182 9.87 9.73843L9.81597 9.18256C9.73354 8.33445 8.83294 7.82653 8.06451 8.19479C6.43029 8.97798 4.95085 10.0497 3.69736 11.3585L3.59816 11.4621C3.13395 11.9468 3.13395 12.7111 3.59815 13.1958L3.69736 13.2994C4.95085 14.6081 6.43029 15.6799 8.06451 16.4631C8.83293 16.8313 9.73354 16.3234 9.81597 15.4753L9.87 14.9194C9.87713 14.846 9.88396 14.7726 9.89048 14.6992H14.5031ZM9.19511 13.1992C8.92874 13.1992 8.69326 13.3385 8.56008 13.55C8.49523 13.653 8.45464 13.7731 8.44656 13.9025C8.42842 14.1934 8.40524 14.484 8.37703 14.7743L8.36135 14.9357C7.3253 14.4017 6.36316 13.7368 5.49838 12.9579C5.27402 12.7558 5.05622 12.5461 4.84538 12.329C5.86892 11.2749 7.05651 10.3947 8.36135 9.72219L8.37703 9.88354C8.40524 10.1738 8.42842 10.4645 8.44656 10.7554C8.47122 11.1507 8.79902 11.4587 9.19511 11.4587H14.2531V13.1992H9.19511Z" fill="#CC4242"/>
</svg>
