<svg width="28" height="28" viewBox="0 0 28 28" fill="none" xmlns="http://www.w3.org/2000/svg">
<rect width="28" height="28" rx="4" fill="#CC4242"/>
<path d="M13.75 7C14.1642 7 14.5 7.33579 14.5 7.75C14.5 8.16421 14.1642 8.5 13.75 8.5C13.3358 8.5 13 8.16421 13 7.75C13 7.33579 13.3358 7 13.75 7ZM13.75 13C14.1642 13 14.5 13.3358 14.5 13.75C14.5 14.1642 14.1642 14.5 13.75 14.5C13.3358 14.5 13 14.1642 13 13.75C13 13.3358 13.3358 13 13.75 13ZM13.75 19C14.1642 19 14.5 19.3358 14.5 19.75C14.5 20.1642 14.1642 20.5 13.75 20.5C13.3358 20.5 13 20.1642 13 19.75C13 19.3358 13.3358 19 13.75 19Z" fill="white" stroke="white" stroke-width="1.5"/>
</svg>
