<svg width="28" height="28" viewBox="0 0 28 28" fill="none" xmlns="http://www.w3.org/2000/svg">
<rect width="28" height="28" rx="4" fill="#CC4242"/>
<path fill-rule="evenodd" clip-rule="evenodd" d="M17.9672 7.69095C17.7973 6.33147 16.1912 5.6977 15.1387 6.5748L10.798 10.1921C10.7531 10.2295 10.6964 10.25 10.6379 10.25H7C6.0335 10.25 5.25 11.0335 5.25 12V16C5.25 16.9665 6.0335 17.75 7 17.75H10.6379C10.6964 17.75 10.7531 17.7705 10.798 17.808L15.1387 21.4252C16.1912 22.3023 17.7973 21.6686 17.9672 20.3091C18.4909 16.1193 18.4909 11.8807 17.9672 7.69095ZM16.099 7.72713C16.2403 7.60936 16.456 7.69446 16.4788 7.87701C16.9871 11.9432 16.9871 16.0568 16.4788 20.123C16.456 20.3056 16.2403 20.3907 16.099 20.2729L11.7583 16.6556C11.4438 16.3935 11.0473 16.25 10.6379 16.25H7C6.86193 16.25 6.75 16.1381 6.75 16V12C6.75 11.8619 6.86193 11.75 7 11.75H10.6379C11.0473 11.75 11.4438 11.6065 11.7583 11.3444L16.099 7.72713Z" fill="white"/>
<path d="M21.0323 9.94771C20.8894 9.55891 20.4585 9.35953 20.0697 9.50238C19.6809 9.64524 19.4815 10.0762 19.6243 10.465C20.0288 11.566 20.25 12.7563 20.25 14C20.25 15.0316 20.0978 16.0264 19.8152 16.9637C19.7995 17.0159 19.7833 17.068 19.7668 17.1198C19.7222 17.2595 19.6747 17.398 19.6243 17.535C19.4815 17.9238 19.6809 18.3548 20.0697 18.4977C20.4585 18.6405 20.8894 18.4411 21.0323 18.0523C21.0901 17.8951 21.1446 17.7362 21.1958 17.5759C21.2148 17.5163 21.2333 17.4566 21.2514 17.3967C21.5759 16.3204 21.75 15.1799 21.75 14C21.75 12.5772 21.4968 11.2119 21.0323 9.94771Z" fill="white"/>
</svg>
