<svg width="16" height="20" viewBox="0 0 16 20" fill="none" xmlns="http://www.w3.org/2000/svg">
<path fill-rule="evenodd" clip-rule="evenodd" d="M8.99994 1C8.99994 0.44772 8.55224 0 7.99994 0C7.44764 0 6.99994 0.44772 6.99994 1V1.75H6.44254C4.21745 1.75 2.37585 3.48001 2.23696 5.70074L2.01595 9.2342C1.93169 10.5814 1.4794 11.8797 0.708342 12.9876C0.0116615 13.9886 0.631882 15.3712 1.84281 15.5165L5.24994 15.9254V17C5.24994 18.5188 6.48114 19.75 7.99994 19.75C9.51874 19.75 10.7499 18.5188 10.7499 17V15.9254L14.157 15.5165C15.368 15.3712 15.9882 13.9886 15.2915 12.9876C14.5204 11.8797 14.0681 10.5814 13.9839 9.2342L13.7629 5.70074C13.624 3.48001 11.7824 1.75 9.55734 1.75H8.99994V1ZM6.44254 3.25C5.00952 3.25 3.82348 4.36417 3.73403 5.79438L3.51303 9.3278C3.41163 10.949 2.86738 12.5112 1.93953 13.8444C1.88918 13.9168 1.934 14.0167 2.02153 14.0272L5.75919 14.4757C7.24764 14.6543 8.75224 14.6543 10.2406 14.4757L13.9783 14.0272C14.0658 14.0167 14.1107 13.9168 14.0603 13.8444C13.1325 12.5112 12.5882 10.949 12.4868 9.3278L12.2658 5.79438C12.1763 4.36417 10.9903 3.25 9.55734 3.25H6.44254ZM7.99994 18.25C7.30954 18.25 6.74994 17.6904 6.74994 17V16.25H9.24994V17C9.24994 17.6904 8.69034 18.25 7.99994 18.25Z" fill="#737373"/>
</svg>
