<svg width="50" height="51" viewBox="0 0 50 51" fill="none" xmlns="http://www.w3.org/2000/svg">
<circle cx="25" cy="25.5" r="25" fill="#CC4242"/>
<path d="M23.5414 33.2669C24.0141 28.4338 24.0141 23.5662 23.5414 18.7331C23.4989 18.2984 23.2008 17.9323 22.7887 17.7985C21.1458 17.2652 19.3536 17.2652 17.7107 17.7985C17.2987 17.9323 17.0005 18.2984 16.958 18.7331C16.4854 23.5662 16.4854 28.4338 16.958 33.2669C17.0005 33.7016 17.2987 34.0677 17.7107 34.2015C19.3536 34.7348 21.1458 34.7348 22.7887 34.2015C23.2008 34.0677 23.4989 33.7016 23.5414 33.2669Z" fill="white"/>
<path d="M33.0414 33.2669C33.5141 28.4338 33.5141 23.5662 33.0414 18.7331C32.9989 18.2984 32.7008 17.9323 32.2887 17.7985C30.6458 17.2652 28.8536 17.2652 27.2107 17.7985C26.7986 17.9323 26.5005 18.2984 26.458 18.7331C25.9853 23.5662 25.9853 28.4338 26.458 33.2669C26.5005 33.7016 26.7986 34.0677 27.2107 34.2015C28.8536 34.7348 30.6458 34.7348 32.2887 34.2015C32.7008 34.0677 32.9989 33.7016 33.0414 33.2669Z" fill="white"/>
</svg>
