<svg width="51" height="15" viewBox="0 0 51 15" fill="none" xmlns="http://www.w3.org/2000/svg">
<path d="M8.41821 1.48196C8.24021 1.18618 8.0006 0.931664 7.72677 0.732182C7.44608 0.539578 7.14486 0.388247 6.8231 0.291945C6.47396 0.175007 6.11112 0.0993399 5.74144 0.0649463C5.31014 0.0236741 4.87884 0.0030384 4.44755 0.0030384H0.716498C0.360508 -0.0313551 0.0455944 0.230036 0.0113645 0.594608C0.0113645 0.601486 0.0113645 0.608364 0.0113645 0.615243C0.0113645 0.615243 0.0113645 0.635879 0.0113645 0.649637V6.7373C0.531658 7.85165 1.3874 8.77339 2.46222 9.36496V8.14055C2.42799 7.74158 2.72237 7.39765 3.11259 7.36326H4.23532C5.76198 7.36326 6.92579 7.03996 7.73361 6.40024C8.54144 5.76052 8.94535 4.80438 8.95904 3.54557C8.95904 3.181 8.91796 2.81643 8.82897 2.46561C8.73997 2.10792 8.60305 1.78462 8.41821 1.48196ZM6.2275 4.61177C6.09743 4.83877 5.90574 5.01762 5.67298 5.13455C5.41968 5.25837 5.14584 5.32716 4.872 5.3478C4.56393 5.38907 4.25586 5.40282 3.94779 5.40282H2.87298C2.61283 5.40282 2.45537 5.18958 2.45537 4.88692V2.37619C2.44168 2.16983 2.59914 1.99099 2.80452 1.97723C2.82506 1.97723 2.85244 1.97723 2.87298 1.97723H3.94779C4.29694 1.97723 4.62554 1.98411 4.93361 2.00474C5.20745 2.0185 5.48129 2.08729 5.72775 2.19735C5.96051 2.30053 6.15219 2.47249 6.27542 2.69261C6.41919 2.9884 6.4808 3.3117 6.46711 3.63499C6.47395 3.97893 6.3918 4.31599 6.2275 4.61177ZM2.46222 9.72265C1.54486 9.3856 0.702807 8.85594 0.00451816 8.16807V11.1122C-0.0297117 11.3391 0.134591 11.5524 0.360508 11.5868C0.367354 11.5868 0.3742 11.5868 0.381046 11.5868H2.06515C2.51014 11.5868 2.46222 11.1053 2.46222 11.1053V9.72265ZM25.6495 3.20852H24.1913C23.9038 3.18788 23.6436 3.38048 23.582 3.66251L21.8911 8.34003C21.8911 8.34003 20.3986 4.07523 20.2891 3.74505C20.2275 3.42863 19.9537 3.20852 19.6319 3.20164H18.2901C17.8109 3.20164 17.8109 3.57997 17.8725 3.72442C17.9341 3.86887 19.7688 8.91784 20.4876 10.8508C20.5972 11.0915 20.6793 11.3391 20.7204 11.6005C20.6725 11.8551 20.5766 12.1027 20.4397 12.3228C20.385 12.4122 20.3233 12.5017 20.2549 12.5842C21.6378 12.1715 23.2397 10.665 24.0476 9.04166C24.8622 6.79232 25.9302 3.79321 25.9781 3.63499C26.026 3.40112 26.026 3.20852 25.6495 3.20852ZM19.1595 13.0382C19.0363 13.0382 18.9131 13.0244 18.783 13.0107C18.6324 12.99 18.338 13.0107 18.338 13.2721V14.4002C18.338 14.8335 18.5502 14.861 18.6529 14.8886C18.9952 14.9642 19.3512 15.0055 19.7072 14.9986C20.1248 15.0124 20.5424 14.923 20.9189 14.7441C21.2681 14.5653 21.5762 14.3245 21.8226 14.0218C22.1101 13.6917 22.3498 13.334 22.5414 12.9419C22.7468 12.5292 22.9453 12.0683 23.1302 11.5661L23.3493 10.9677C22.9248 11.4079 21.0148 13.2239 19.1595 13.0382ZM16.962 4.55674C16.8798 4.36414 16.7771 4.19217 16.6402 4.03396C16.5033 3.88951 16.3527 3.76569 16.1815 3.65563C16.0035 3.53182 15.805 3.42863 15.6065 3.33921C15.4011 3.25667 15.1889 3.19476 14.9766 3.14661C14.7302 3.09158 14.4837 3.05718 14.2304 3.03655C13.9634 3.00903 13.6622 2.99528 13.3268 2.99528C11.1018 2.99528 9.83532 3.69691 9.52726 5.10704C9.47933 5.30652 9.59572 5.51288 9.8011 5.56103C9.82163 5.56791 9.84217 5.56791 9.85586 5.56791H11.2251C11.6016 5.56791 11.6016 5.45097 11.7385 5.12768C11.8001 4.94883 11.9097 4.7975 12.0603 4.68744C12.4094 4.46044 12.827 4.35726 13.2378 4.38478C13.628 4.3435 14.0114 4.43981 14.34 4.65992C14.5864 4.8938 14.7302 5.21022 14.7439 5.55416C14.7439 6.02191 14.6001 6.32457 14.0251 6.32457C12.6627 6.27642 11.1977 6.42775 10.3762 6.90926C9.54779 7.41829 9.05488 8.32628 9.08227 9.30305C9.07542 9.6745 9.15073 10.046 9.30134 10.383C9.4451 10.6788 9.65733 10.9333 9.91747 11.1328C10.1913 11.3529 10.5062 11.5249 10.8417 11.6212C11.2251 11.7244 11.6153 11.7725 12.0123 11.7725C12.5463 11.7794 13.0735 11.7037 13.5869 11.5455C14.0387 11.3598 14.4632 11.119 14.8534 10.8301V11.0915C14.8534 11.3529 14.9287 11.5799 15.2299 11.5799H16.8182C17.14 11.5799 17.2153 11.3529 17.2153 11.064V6.15261C17.2153 5.84306 17.1947 5.5404 17.1537 5.23774C17.1194 5.01074 17.051 4.77686 16.962 4.55674ZM14.7918 9.37872C14.7918 9.37872 14.381 10.2386 12.9229 10.2386C12.5737 10.2523 12.2314 10.156 11.937 9.96341C11.6769 9.75704 11.5331 9.44063 11.5605 9.11045C11.5263 8.66333 11.7727 8.24373 12.1766 8.05113C12.7654 7.82413 13.3952 7.72095 14.0251 7.74158C14.3947 7.68655 14.737 7.94107 14.7918 8.31252C14.7986 8.34691 14.7986 8.3813 14.7986 8.4157L14.7918 9.37872Z" fill="#333333"/>
<path d="M50.7175 5.60864C51.0942 6.18968 51.0942 6.92917 50.7175 7.5102C50.3408 8.05822 48.3067 10.1513 47.6355 10.8247C47.0534 11.4058 46.2657 12 45.485 12H29.3218C27.137 12 27 11.2803 27 9.67587V3.12605C27 1.48199 27.5068 1 28.9999 1H45.5192C46.2931 1 46.9849 1.38295 47.7588 2.14886C48.4437 2.80912 50.4435 5.21909 50.7175 5.60864Z" fill="#33CCCC"/>
<path d="M30 4.42331V4.3865C30 4.19018 30 4 29.6346 4H28.3256C28.0199 4 28 4.15337 28 4.39264V6C28.5183 5.33129 29.2027 4.79141 30 4.42331Z" fill="white"/>
<path d="M38.9978 10.5167V10.4157V5.85663C38.9978 3.95221 38.2071 3 36.6323 3C36.1931 3.00721 35.7673 3.14427 35.3956 3.39675C34.9901 3.67087 34.6251 4.00992 34.3142 4.40667C34.1723 3.98106 33.902 3.61317 33.5505 3.37511C33.145 3.13706 32.6855 3.02164 32.2191 3.04328C31.5365 3.04328 30.8742 3.28855 30.3335 3.7358C30.2186 3.85843 28.0019 5.70514 28.0019 7.62399V10.5383C28.0019 10.6321 27.9546 10.9856 28.3331 10.9856H29.7253C30.1578 10.9856 30.1173 10.6826 30.1173 10.56V5.8422C30.3471 5.51037 30.8269 4.70965 31.6109 4.70965C31.8677 4.68801 32.1177 4.81064 32.2597 5.03427C32.4151 5.37331 32.4827 5.74842 32.4557 6.11632V9.79531V10.5527C32.4557 10.6465 32.4084 11 32.7868 11H34.152C34.5846 11 34.544 10.697 34.544 10.5744V10.4734V5.83499C34.7941 5.50316 35.2807 4.70244 36.0376 4.70244C36.2944 4.68079 36.5445 4.80343 36.6999 5.02705C36.8621 5.35888 36.9297 5.74121 36.9027 6.10911V9.7881V10.5455C36.9027 10.6393 36.8554 10.9928 37.2338 10.9928H38.6261C39.0519 10.9351 38.9978 10.6321 38.9978 10.5167Z" fill="white"/>
<path d="M46.8207 8.01169C46.3241 9.26299 45.0276 10.0669 43.6069 9.99561C41.4414 9.99561 40 8.60816 40 6.53346C40 4.45877 41.5034 3 43.531 3C45.5586 3 46.9172 4.32262 47 6.45567C47 6.72797 46.931 6.96785 46.5655 6.96785H41.9724C42 8.10894 42.5862 8.73783 43.6207 8.73783C44.1862 8.75079 44.7034 8.45904 44.9517 7.97927C45.0483 7.84312 45.2138 7.76532 45.3862 7.7718H46.5724C46.7034 7.76532 46.8138 7.86257 46.8207 7.98575C46.8207 8.0052 46.8207 8.01817 46.8207 8.03762V8.01169ZM43.5379 4.30965C42.6759 4.30965 42.0966 4.87371 41.9655 5.80084H45.0483C44.9724 4.99041 44.5103 4.30965 43.5379 4.30965Z" fill="white"/>
</svg>
