<svg width="32" height="32" viewBox="0 0 32 32" fill="none" xmlns="http://www.w3.org/2000/svg">
<rect width="32" height="32" rx="8" fill="#F5F5F5"/>
<path fill-rule="evenodd" clip-rule="evenodd" d="M11.5 12.25C11.5 9.90279 13.4028 8 15.75 8C18.0972 8 20 9.90279 20 12.25C20 14.5972 18.0972 16.5 15.75 16.5C13.4028 16.5 11.5 14.5972 11.5 12.25ZM15.75 9.5C14.2312 9.5 13 10.7312 13 12.25C13 13.7688 14.2312 15 15.75 15C17.2688 15 18.5 13.7688 18.5 12.25C18.5 10.7312 17.2688 9.5 15.75 9.5Z" fill="#737373"/>
<path fill-rule="evenodd" clip-rule="evenodd" d="M11.75 19.5C10.5074 19.5 9.5 20.5074 9.5 21.75V22.9383C9.5 22.9564 9.51311 22.9718 9.53097 22.9747C13.6497 23.6472 17.8503 23.6472 21.969 22.9747C21.9869 22.9718 22 22.9564 22 22.9383V21.75C22 20.5074 20.9926 19.5 19.75 19.5H19.4091C19.3828 19.5 19.3566 19.5042 19.3315 19.5123L18.466 19.795C16.7012 20.3712 14.7988 20.3712 13.034 19.795L12.1685 19.5123C12.1434 19.5042 12.1172 19.5 12.0909 19.5H11.75ZM8 21.75C8 19.6789 9.67893 18 11.75 18H12.0909C12.2754 18 12.4587 18.0292 12.6341 18.0864L13.4996 18.3691C14.9619 18.8465 16.5381 18.8465 18.0004 18.3691L18.8659 18.0864C19.0413 18.0292 19.2246 18 19.4091 18H19.75C21.8211 18 23.5 19.6789 23.5 21.75V22.9383C23.5 23.6915 22.9541 24.3337 22.2107 24.4551C17.9319 25.1537 13.5681 25.1537 9.28927 24.4551C8.54588 24.3337 8 23.6915 8 22.9383V21.75Z" fill="#737373"/>
</svg>
