<svg width="24" height="24" viewBox="0 0 24 24" fill="none" xmlns="http://www.w3.org/2000/svg">
<path fill-rule="evenodd" clip-rule="evenodd" d="M5.83998 9.85635C7.6273 13.7482 10.8078 16.8424 14.7615 18.519L14.774 18.5243L15.5378 18.8647C16.5105 19.2981 17.6537 18.9903 18.2773 18.1272L19.5517 16.3635C19.6295 16.2558 19.6094 16.106 19.506 16.0225L17.2813 14.2277C17.1707 14.1385 17.008 14.1593 16.9234 14.2734L16.0576 15.4418C15.8473 15.7256 15.4675 15.8242 15.1458 15.6786C12.1894 14.3406 9.81367 11.9649 8.47574 9.00851C8.33012 8.68674 8.42872 8.30699 8.71247 8.09671L9.88085 7.23085C9.99502 7.14624 10.0158 6.98362 9.92657 6.87302L8.13153 4.64798C8.0481 4.54456 7.89836 4.52448 7.79063 4.60225L6.01733 5.88241C5.14854 6.5096 4.84259 7.66244 5.28605 8.63789L5.83939 9.85505C5.83959 9.85549 5.83979 9.85592 5.83998 9.85635ZM14.1696 19.8973C9.87362 18.0737 6.41825 14.7107 4.47621 10.4809L4.47504 10.4784L3.92054 9.25868C3.18144 7.63293 3.69136 5.71152 5.13935 4.66621L6.91264 3.38605C7.66676 2.84164 8.71499 2.98225 9.29898 3.70614L11.094 5.93119C11.7186 6.70536 11.5731 7.84375 10.7739 8.43599L10.1044 8.93215C11.2354 11.1265 13.0277 12.9189 15.2221 14.0498L15.7183 13.3803C16.3105 12.5812 17.4489 12.4357 18.2231 13.0603L20.4478 14.855C21.1719 15.4392 21.3124 16.4879 20.7675 17.242L19.4931 19.0057C18.4538 20.4442 16.5484 20.9572 14.9274 20.2349L14.1696 19.8973Z" fill="#BBB5B5"/>
</svg>
