<svg width="18" height="18" viewBox="0 0 18 18" fill="none" xmlns="http://www.w3.org/2000/svg">
<path fill-rule="evenodd" clip-rule="evenodd" d="M4.37949 7.39226C5.71998 10.3112 8.10537 12.6318 11.0706 13.8892L11.08 13.8932L11.6529 14.1485C12.3824 14.4736 13.2398 14.2427 13.7075 13.5954L14.6633 12.2726C14.7216 12.1919 14.7066 12.0795 14.629 12.0169L12.9605 10.6708C12.8775 10.6039 12.7555 10.6195 12.6921 10.7051L12.0427 11.5814C11.885 11.7942 11.6001 11.8682 11.3589 11.759C9.14157 10.7555 7.35976 8.97368 6.35632 6.75638C6.2471 6.51506 6.32105 6.23024 6.53386 6.07253L7.41015 5.42314C7.49577 5.35968 7.51137 5.23772 7.44444 5.15477L6.09816 3.48599C6.03558 3.40842 5.92328 3.39336 5.84248 3.45169L4.51251 4.41181C3.86091 4.8822 3.63145 5.74683 3.96405 6.47842L4.37905 7.39129C4.3792 7.39162 4.37935 7.39194 4.37949 7.39226ZM10.6267 14.923C7.40472 13.5553 4.8132 11.033 3.35667 7.86068L3.35579 7.8588L2.93991 6.94401C2.38559 5.7247 2.76803 4.28364 3.85402 3.49966L5.18399 2.53954C5.74958 2.13123 6.53575 2.23669 6.97374 2.77961L8.32002 4.44839C8.78847 5.02902 8.67934 5.88281 8.07994 6.32699L7.57782 6.69911C8.42607 8.34488 9.77029 9.68918 11.4161 10.5374L11.7882 10.0352C12.2324 9.4359 13.0862 9.32678 13.6668 9.79523L15.3354 11.1413C15.8784 11.5794 15.9838 12.3659 15.5751 12.9315L14.6193 14.2543C13.8399 15.3331 12.4108 15.7179 11.1951 15.1762L10.6267 14.923Z" fill="#BBB5B5"/>
</svg>
