<svg width="24" height="24" viewBox="0 0 24 24" fill="none" xmlns="http://www.w3.org/2000/svg">
<rect width="24" height="24" rx="4" fill="#F5F0F0"/>
<path fill-rule="evenodd" clip-rule="evenodd" d="M19.2641 10.4838C20.256 11.2513 20.256 12.7487 19.2641 13.5162C16.2666 15.8356 12.9194 17.6638 9.34784 18.9322L8.69537 19.164C7.44709 19.6073 6.12858 18.7628 5.95959 17.4742C5.48743 13.874 5.48743 10.126 5.95959 6.5258C6.12858 5.23725 7.4471 4.39269 8.69537 4.83603L9.34784 5.06777C12.9194 6.33625 16.2666 8.1644 19.2641 10.4838ZM18.3462 12.3299C18.562 12.1629 18.562 11.8371 18.3462 11.6701C15.4744 9.44802 12.2676 7.69654 8.84582 6.48126L8.19335 6.24953C7.8684 6.13412 7.49496 6.35407 7.44686 6.72085C6.99168 10.1916 6.99168 13.8084 7.44686 17.2792C7.49496 17.6459 7.8684 17.8659 8.19334 17.7505L8.84582 17.5188C12.2676 16.3035 15.4744 14.552 18.3462 12.3299Z" fill="black"/>
</svg>
