<svg width="24" height="24" viewBox="0 0 24 24" fill="none" xmlns="http://www.w3.org/2000/svg">
<rect width="24" height="24" rx="4" fill="#F5F0F0"/>
<path fill-rule="evenodd" clip-rule="evenodd" d="M11.8125 5C11.5019 5 11.25 5.25184 11.25 5.5625V8.5625C11.25 8.5626 11.25 8.5624 11.25 8.5625V14.0071C10.6941 13.5349 9.97406 13.25 9.1875 13.25C7.42709 13.25 6 14.6771 6 16.4375C6 18.1979 7.42709 19.625 9.1875 19.625C10.9479 19.625 12.375 18.1979 12.375 16.4375C12.375 16.3484 12.3713 16.2601 12.3642 16.1729C12.3713 16.1372 12.375 16.1003 12.375 16.0625V9.125H16.3125C17.4516 9.125 18.375 8.20159 18.375 7.0625C18.375 5.92342 17.4516 5 16.3125 5H11.8125ZM12.375 8H16.3125C16.8303 8 17.25 7.58027 17.25 7.0625C17.25 6.54473 16.8303 6.125 16.3125 6.125H12.375V8ZM9.1875 14.375C8.04841 14.375 7.125 15.2984 7.125 16.4375C7.125 17.5766 8.04841 18.5 9.1875 18.5C10.3266 18.5 11.25 17.5766 11.25 16.4375C11.25 15.2984 10.3266 14.375 9.1875 14.375Z" fill="black"/>
</svg>
