<svg width="32" height="32" viewBox="0 0 32 32" fill="none" xmlns="http://www.w3.org/2000/svg">
<rect width="32" height="32" rx="8" fill="#F5F5F5"/>
<path fill-rule="evenodd" clip-rule="evenodd" d="M22.6586 14.7669C23.6505 15.5344 23.6505 17.0318 22.6586 17.7993C19.6611 20.1187 16.3139 21.9469 12.7424 23.2153L12.0899 23.4471C10.8416 23.8904 9.52311 23.0459 9.35412 21.7573C8.88196 18.1571 8.88196 14.4091 9.35412 10.8089C9.52311 9.52039 10.8416 8.67583 12.0899 9.11917L12.7424 9.35091C16.3139 10.6194 19.6611 12.4475 22.6586 14.7669ZM21.7407 16.613C21.9565 16.446 21.9565 16.1202 21.7407 15.9532C18.8689 13.7312 15.6621 11.9797 12.2403 10.7644L11.5879 10.5327C11.2629 10.4173 10.8895 10.6372 10.8414 11.004C10.3862 14.4747 10.3862 18.0915 10.8414 21.5623C10.8895 21.929 11.2629 22.149 11.5879 22.0336L12.2403 21.8019C15.6621 20.5866 18.8689 18.8351 21.7407 16.613Z" fill="#737373"/>
</svg>
