<svg width="24" height="24" viewBox="0 0 24 24" fill="none" xmlns="http://www.w3.org/2000/svg">
<path fill-rule="evenodd" clip-rule="evenodd" d="M11.1991 2.58722C11.6974 2.31037 12.3034 2.31037 12.8017 2.58722L20.0017 6.58722C20.5255 6.87823 20.8504 7.43036 20.8504 8.02958V15.9704C20.8504 16.5697 20.5255 17.1218 20.0017 17.4128L12.8017 21.4128C12.3034 21.6896 11.6974 21.6897 11.1991 21.4128L3.99908 17.4128C3.47526 17.1218 3.15039 16.5697 3.15039 15.9704V8.02958C3.15039 7.43036 3.47526 6.87823 3.99908 6.58722L11.1991 2.58722ZM12.0732 3.89846C12.0279 3.87329 11.9729 3.87329 11.9276 3.89846L4.72754 7.89846C4.67992 7.92491 4.65039 7.97511 4.65039 8.02958V15.9704C4.65039 16.0249 4.67992 16.0751 4.72754 16.1016L11.9276 20.1016C11.9729 20.1267 12.0279 20.1267 12.0732 20.1016L19.2732 16.1016C19.3209 16.0751 19.3504 16.0249 19.3504 15.9704V8.02958C19.3504 7.97511 19.3209 7.92491 19.2732 7.89846L12.0732 3.89846Z" fill="#BBB5B5"/>
<path fill-rule="evenodd" clip-rule="evenodd" d="M7.25 12C7.25 9.37665 9.37665 7.25 12 7.25C14.6234 7.25 16.75 9.37665 16.75 12C16.75 14.6234 14.6234 16.75 12 16.75C9.37665 16.75 7.25 14.6234 7.25 12ZM12 8.75C10.2051 8.75 8.75 10.2051 8.75 12C8.75 13.7949 10.2051 15.25 12 15.25C13.7949 15.25 15.25 13.7949 15.25 12C15.25 10.2051 13.7949 8.75 12 8.75Z" fill="#BBB5B5"/>
</svg>
