<svg width="40" height="40" viewBox="0 0 40 40" fill="none" xmlns="http://www.w3.org/2000/svg">
<rect width="40" height="40" rx="8" fill="#CC4242"/>
<path fill-rule="evenodd" clip-rule="evenodd" d="M17.0594 12.6066C15.7882 12.4645 14.4723 12.4645 13.2011 12.6066C12.8922 12.6411 12.6486 12.8857 12.6139 13.1827C12.462 14.4807 12.462 15.7919 12.6139 17.0898C12.6486 17.3869 12.8922 17.6315 13.2011 17.666C14.4723 17.8081 15.7882 17.8081 17.0594 17.666C17.3683 17.6315 17.6119 17.3869 17.6467 17.0898C17.7985 15.7919 17.7985 14.4807 17.6467 13.1827C17.6119 12.8857 17.3683 12.6411 17.0594 12.6066ZM13.0345 11.1158C14.4164 10.9614 15.8441 10.9614 17.226 11.1158C18.2169 11.2266 19.0194 12.0066 19.1365 13.0085C19.3019 14.4222 19.3019 15.8504 19.1365 17.2641C19.0194 18.266 18.2169 19.046 17.226 19.1567C15.8441 19.3112 14.4164 19.3112 13.0345 19.1567C12.0436 19.046 11.2412 18.266 11.124 17.2641C10.9587 15.8504 10.9587 14.4222 11.124 13.0085C11.2412 12.0066 12.0436 11.2266 13.0345 11.1158Z" fill="white"/>
<path fill-rule="evenodd" clip-rule="evenodd" d="M17.0594 22.6066C15.7882 22.4645 14.4723 22.4645 13.2011 22.6066C12.8922 22.6411 12.6486 22.8857 12.6139 23.1828C12.462 24.4807 12.462 25.7919 12.6139 27.0898C12.6486 27.3869 12.8922 27.6315 13.2011 27.666C14.4723 27.8081 15.7882 27.8081 17.0594 27.666C17.3683 27.6315 17.6119 27.3869 17.6467 27.0898C17.7985 25.7919 17.7985 24.4807 17.6467 23.1828C17.6119 22.8857 17.3683 22.6411 17.0594 22.6066ZM13.0345 21.1159C14.4164 20.9614 15.8441 20.9614 17.226 21.1159C18.2169 21.2266 19.0194 22.0066 19.1365 23.0085C19.3019 24.4222 19.3019 25.8504 19.1365 27.2641C19.0194 28.266 18.2169 29.046 17.226 29.1567C15.8441 29.3112 14.4164 29.3112 13.0345 29.1567C12.0436 29.046 11.2412 28.266 11.124 27.2641C10.9587 25.8504 10.9587 24.4222 11.124 23.0085C11.2412 22.0066 12.0436 21.2266 13.0345 21.1159Z" fill="white"/>
<path fill-rule="evenodd" clip-rule="evenodd" d="M27.0595 12.6066C25.7882 12.4645 24.4723 12.4645 23.2011 12.6066C22.8922 12.6411 22.6486 12.8857 22.6139 13.1827C22.4621 14.4807 22.4621 15.7919 22.6139 17.0898C22.6486 17.3869 22.8922 17.6315 23.2011 17.666C24.4723 17.8081 25.7882 17.8081 27.0595 17.666C27.3684 17.6315 27.612 17.3869 27.6467 17.0898C27.7985 15.7919 27.7985 14.4807 27.6467 13.1827C27.612 12.8857 27.3684 12.6411 27.0595 12.6066ZM23.0345 11.1158C24.4165 10.9614 25.8441 10.9614 27.2261 11.1158C28.2169 11.2266 29.0194 12.0066 29.1365 13.0085C29.3019 14.4222 29.3019 15.8504 29.1365 17.2641C29.0194 18.266 28.2169 19.046 27.2261 19.1567C25.8441 19.3112 24.4165 19.3112 23.0345 19.1567C22.0437 19.046 21.2412 18.266 21.124 17.2641C20.9587 15.8504 20.9587 14.4222 21.124 13.0085C21.2412 12.0066 22.0437 11.2266 23.0345 11.1158Z" fill="white"/>
<path fill-rule="evenodd" clip-rule="evenodd" d="M27.0595 22.6066C25.7882 22.4645 24.4723 22.4645 23.2011 22.6066C22.8922 22.6411 22.6486 22.8857 22.6139 23.1828C22.4621 24.4807 22.4621 25.7919 22.6139 27.0898C22.6486 27.3869 22.8922 27.6315 23.2011 27.666C24.4723 27.8081 25.7882 27.8081 27.0595 27.666C27.3684 27.6315 27.612 27.3869 27.6467 27.0898C27.7985 25.7919 27.7985 24.4807 27.6467 23.1828C27.612 22.8857 27.3684 22.6411 27.0595 22.6066ZM23.0345 21.1159C24.4165 20.9614 25.8441 20.9614 27.2261 21.1159C28.2169 21.2266 29.0194 22.0066 29.1365 23.0085C29.3019 24.4222 29.3019 25.8504 29.1365 27.2641C29.0194 28.266 28.2169 29.046 27.2261 29.1567C25.8441 29.3112 24.4165 29.3112 23.0345 29.1567C22.0437 29.046 21.2412 28.266 21.124 27.2641C20.9587 25.8504 20.9587 24.4222 21.124 23.0085C21.2412 22.0066 22.0437 21.2266 23.0345 21.1159Z" fill="white"/>
</svg>
