<svg width="40" height="40" viewBox="0 0 40 40" fill="none" xmlns="http://www.w3.org/2000/svg">
<rect width="40" height="40" rx="8" fill="#CC4242"/>
<path fill-rule="evenodd" clip-rule="evenodd" d="M12.6227 13.5196C12.2111 14.8537 12.2111 16.3007 12.6227 17.6348C17.307 18.0863 22.0238 18.0863 26.7082 17.6348C27.1198 16.3007 27.1198 14.8537 26.7082 13.5196C22.0238 13.0681 17.307 13.0681 12.6227 13.5196ZM12.3742 12.0367C17.2234 11.5625 22.1074 11.5625 26.9566 12.0367C27.4912 12.089 27.9405 12.4553 28.1046 12.961C28.6543 14.6541 28.6543 16.5003 28.1046 18.1934C27.9405 18.6992 27.4912 19.0655 26.9566 19.1177C22.1074 19.592 17.2234 19.592 12.3742 19.1177C11.8396 19.0655 11.3904 18.6992 11.2262 18.1934C10.6766 16.5003 10.6766 14.6541 11.2262 12.961C11.3904 12.4553 11.8396 12.089 12.3742 12.0367Z" fill="white"/>
<path fill-rule="evenodd" clip-rule="evenodd" d="M12.6227 23.0196C12.2111 24.3537 12.2111 25.8007 12.6227 27.1348C17.307 27.5863 22.0238 27.5863 26.7082 27.1348C27.1198 25.8007 27.1198 24.3537 26.7082 23.0196C22.0238 22.5681 17.307 22.5681 12.6227 23.0196ZM12.3742 21.5367C17.2234 21.0624 22.1074 21.0624 26.9566 21.5367C27.4912 21.5889 27.9405 21.9552 28.1046 22.461C28.6543 24.1541 28.6543 26.0003 28.1046 27.6934C27.9405 28.1992 27.4912 28.5655 26.9566 28.6177C22.1074 29.092 17.2234 29.092 12.3742 28.6177C11.8396 28.5655 11.3904 28.1992 11.2262 27.6934C10.6766 26.0003 10.6766 24.1541 11.2262 22.461C11.3904 21.9552 11.8396 21.5889 12.3742 21.5367Z" fill="white"/>
</svg>
