<svg width="18" height="19" viewBox="0 0 18 19" fill="none" xmlns="http://www.w3.org/2000/svg">
<path fill-rule="evenodd" clip-rule="evenodd" d="M14.0629 8.37507L14.058 8.55717L14.0629 8.75007L14.0583 8.93247L14.0629 9.12507L14.0585 9.30874L14.0629 9.50007L13.9411 14.8273C13.9122 16.0913 12.9509 17.138 11.6939 17.2741C9.90338 17.468 8.09708 17.468 6.30651 17.2741C5.04958 17.138 4.08825 16.0913 4.05936 14.8273L3.93757 9.50007L3.94197 9.30747L3.93758 9.12507L3.9422 8.93322L3.93755 8.75007L3.94243 8.55799L3.9375 8.37507L4.06051 3.8016C4.06223 3.73779 4.06671 3.67464 4.07385 3.61228L4.07665 3.58591L4.07887 3.56465C4.13932 2.94658 4.48183 2.40751 4.98097 2.08401C5.01822 2.05924 5.05633 2.03566 5.09527 2.01331C5.13335 1.99077 5.17222 1.96939 5.21184 1.94923C5.45679 1.81996 5.73016 1.73617 6.02116 1.70938C8.00303 1.52695 9.99743 1.52695 11.9792 1.70938C12.2698 1.73612 12.5428 1.81969 12.7874 1.94861C12.827 1.96875 12.8659 1.99009 12.904 2.0126C12.9442 2.03562 12.9835 2.05996 13.0218 2.08554C13.5183 2.40832 13.8593 2.94459 13.9211 3.55955L13.9269 3.61528C13.9339 3.67667 13.9382 3.73882 13.9399 3.8016L14.0629 8.37507ZM12.8059 3.74056L12.9236 8.89054L12.8282 12.4383C12.8068 13.2357 12.1925 13.8913 11.398 13.9644C9.80281 14.1113 8.19758 14.1113 6.60242 13.9644C5.80797 13.8913 5.19364 13.2357 5.17219 12.4383L5.07679 8.89099L5.19453 3.74056C5.19479 3.72948 5.19524 3.71845 5.19591 3.70747C5.24052 3.40576 5.41537 3.14533 5.66328 2.98717C5.7572 2.93821 5.8614 2.90575 5.97225 2.89375C7.98503 2.67577 10.0154 2.67577 12.0282 2.89375C12.139 2.90575 12.2432 2.93819 12.3371 2.98711C12.5851 3.1453 12.76 3.40586 12.8045 3.70771C12.8052 3.71862 12.8057 3.72957 12.8059 3.74056ZM9.00023 16.7751C9.62153 16.7751 10.1252 16.2714 10.1252 15.6501C10.1252 15.0287 9.62153 14.5251 9.00023 14.5251C8.37893 14.5251 7.87523 15.0287 7.87523 15.6501C7.87523 16.2714 8.37893 16.7751 9.00023 16.7751Z" fill="#BBB5B5"/>
</svg>
