<svg width="61" height="60" viewBox="0 0 61 60" fill="none" xmlns="http://www.w3.org/2000/svg">
<circle cx="30.5" cy="30" r="29.5" stroke="#CC4242"/>
<path fill-rule="evenodd" clip-rule="evenodd" d="M31 24.7123C29.2051 24.7123 27.75 26.1674 27.75 27.9623C27.75 29.7572 29.2051 31.2123 31 31.2123C32.7949 31.2123 34.25 29.7572 34.25 27.9623C34.25 26.1674 32.7949 24.7123 31 24.7123ZM29.25 27.9623C29.25 26.9958 30.0335 26.2123 31 26.2123C31.9665 26.2123 32.75 26.9958 32.75 27.9623C32.75 28.9288 31.9665 29.7123 31 29.7123C30.0335 29.7123 29.25 28.9288 29.25 27.9623Z" fill="#CC4242"/>
<path fill-rule="evenodd" clip-rule="evenodd" d="M31 20.7123C26.9959 20.7123 23.75 23.9583 23.75 27.9623C23.75 29.4304 24.1864 30.7966 24.9365 31.9383L22.3505 36.4174C22.2034 36.6722 22.2188 36.9893 22.3899 37.2286C22.5609 37.4679 22.8561 37.5851 23.1447 37.5283L25.7585 37.0145L26.6205 39.5351C26.7156 39.8134 26.9647 40.0104 27.2574 40.0389C27.5502 40.0674 27.8326 39.9222 27.9796 39.6674L30.5594 35.1991C30.7052 35.2079 30.8521 35.2123 31 35.2123C31.1479 35.2123 31.2948 35.2079 31.4406 35.1991L34.0204 39.6674C34.1676 39.9224 34.4504 40.0677 34.7434 40.0388C35.0364 40.01 35.2854 39.8124 35.3801 39.5336L36.2376 37.0078L38.8537 37.528C39.1425 37.5855 39.4382 37.4686 39.6097 37.2293C39.7812 36.9899 39.7967 36.6724 39.6495 36.4174L37.0635 31.9383C37.8136 30.7966 38.25 29.4304 38.25 27.9623C38.25 23.9583 35.0041 20.7123 31 20.7123ZM25.25 27.9623C25.25 24.7867 27.8244 22.2123 31 22.2123C34.1756 22.2123 36.75 24.7867 36.75 27.9623C36.75 31.1379 34.1756 33.7123 31 33.7123C27.8244 33.7123 25.25 31.1379 25.25 27.9623ZM28.9838 34.9283C27.8308 34.5951 26.796 33.9835 25.9569 33.1709L24.4747 35.7382L26.1117 35.4164C26.4797 35.344 26.8446 35.5547 26.966 35.9096L27.5058 37.4882L28.9838 34.9283ZM34.4918 37.484L33.0163 34.9283C34.1692 34.5951 35.204 33.9835 36.0431 33.1709L37.5229 35.734L35.8851 35.4084C35.516 35.335 35.1497 35.5465 35.0287 35.9029L34.4918 37.484Z" fill="#CC4242"/>
</svg>
