<svg width="25" height="24" viewBox="0 0 25 24" fill="none" xmlns="http://www.w3.org/2000/svg">
<path d="M13.163 20.25C13.621 20.25 14.0501 20.0259 14.3118 19.6501L18.5437 13.573C19.3384 12.4318 19.6925 11.0413 19.5406 9.65904L19.2152 6.69763C19.0762 5.43213 18.0827 4.42973 16.8185 4.27934L14.7014 4.0275C13.0848 3.83519 11.4456 4.00189 9.90075 4.51572C8.81942 4.87538 7.95331 5.69612 7.53603 6.75655L5.82742 11.0986C5.74477 11.3086 5.68765 11.5278 5.65729 11.7515C5.39298 13.6987 7.15242 15.3118 9.06938 14.8798L12.8399 14.0302C12.8595 14.0258 12.8717 14.0278 12.8804 14.0306C12.8911 14.0339 12.9035 14.041 12.9147 14.0525C12.9259 14.0641 12.9326 14.0767 12.9356 14.0874C12.9381 14.0963 12.9397 14.1085 12.9347 14.128L11.8074 18.5007C11.579 19.3867 12.2481 20.25 13.163 20.25Z" fill="#BBB5B5"/>
</svg>
