<svg width="24" height="24" viewBox="0 0 24 24" fill="none" xmlns="http://www.w3.org/2000/svg">
<rect width="24" height="24" rx="4" fill="#CC4242"/>
<path fill-rule="evenodd" clip-rule="evenodd" d="M5 9.9557C5 7.7208 6.89531 6 9.12 6C10.2668 6 11.2758 6.55625 12 7.276C12.7242 6.55625 13.7332 6 14.88 6C17.1047 6 19 7.7208 19 9.9557C19 11.4866 18.3689 12.8329 17.4946 13.9709C16.6217 15.107 15.48 16.0711 14.3868 16.8546C13.9692 17.1539 13.5468 17.4299 13.1602 17.6335C12.7972 17.8248 12.3798 18 12 18C11.6202 18 11.2028 17.8248 10.8398 17.6335C10.4532 17.4299 10.0308 17.1539 9.61322 16.8546C8.52004 16.0711 7.3783 15.107 6.50546 13.9709C5.6311 12.8329 5 11.4866 5 9.9557ZM9.12 7.24138C7.4566 7.24138 6.2 8.50684 6.2 9.9557C6.2 11.1172 6.67663 12.1986 7.44487 13.1985C8.21462 14.2004 9.25034 15.0843 10.2966 15.8342C10.6925 16.1179 11.0654 16.3593 11.3844 16.5274C11.7269 16.7078 11.9254 16.7586 12 16.7586C12.0746 16.7586 12.2731 16.7078 12.6156 16.5274C12.9346 16.3593 13.3075 16.1179 13.7034 15.8342C14.7497 15.0843 15.7854 14.2004 16.5551 13.1985C17.3234 12.1986 17.8 11.1172 17.8 9.9557C17.8 8.50684 16.5434 7.24138 14.88 7.24138C13.9246 7.24138 13.0326 7.8318 12.4757 8.58118C12.3621 8.73398 12.1863 8.82353 12 8.82353C11.8137 8.82353 11.6379 8.73398 11.5243 8.58118C10.9674 7.8318 10.0753 7.24138 9.12 7.24138Z" fill="white"/>
</svg>
