<svg width="85" height="85" viewBox="0 0 85 85" fill="none" xmlns="http://www.w3.org/2000/svg">
<circle cx="42.5" cy="42.5" r="42" fill="#FAFAFA" stroke="#E1DEDE"/>
<path fill-rule="evenodd" clip-rule="evenodd" d="M35.948 35.5625C35.948 31.9439 38.8815 29.0104 42.5001 29.0104C46.1187 29.0104 49.0522 31.9439 49.0522 35.5625C49.0522 39.1811 46.1187 42.1146 42.5001 42.1146C38.8815 42.1146 35.948 39.1811 35.948 35.5625ZM42.5001 31.3229C40.1586 31.3229 38.2605 33.221 38.2605 35.5625C38.2605 37.904 40.1586 39.8021 42.5001 39.8021C44.8416 39.8021 46.7397 37.904 46.7397 35.5625C46.7397 33.221 44.8416 31.3229 42.5001 31.3229Z" fill="#D7CFCF"/>
<path fill-rule="evenodd" clip-rule="evenodd" d="M36.3333 46.7396C34.4175 46.7396 32.8645 48.2927 32.8645 50.2083V52.0403C32.8645 52.0682 32.8847 52.0919 32.9122 52.0964C39.262 53.1332 45.7379 53.1332 52.0875 52.0964C52.1151 52.0919 52.1353 52.0682 52.1353 52.0403V50.2083C52.1353 48.2927 50.5823 46.7396 48.6666 46.7396H48.141C48.1005 46.7396 48.0601 46.7461 48.0214 46.7585L46.6871 47.1944C43.9664 48.0827 41.0335 48.0827 38.3127 47.1944L36.9784 46.7585C36.9398 46.7461 36.8994 46.7396 36.8588 46.7396H36.3333ZM30.552 50.2083C30.552 47.0154 33.1404 44.4271 36.3333 44.4271H36.8588C37.1432 44.4271 37.4258 44.4721 37.6962 44.5603L39.0305 44.9961C41.2849 45.7321 43.7149 45.7321 45.9693 44.9961L47.3036 44.5603C47.574 44.4721 47.8566 44.4271 48.141 44.4271H48.6666C51.8595 44.4271 54.4478 47.0154 54.4478 50.2083V52.0403C54.4478 53.2015 53.6062 54.1915 52.4602 54.3787C45.8637 55.4557 39.1362 55.4557 32.5396 54.3787C31.3936 54.1915 30.552 53.2015 30.552 52.0403V50.2083Z" fill="#D7CFCF"/>
</svg>
