<svg width="43" height="43" viewBox="0 0 43 43" fill="none" xmlns="http://www.w3.org/2000/svg">
<circle cx="21.5" cy="21.5" r="21.5" fill="#F9F8F8"/>
<path fill-rule="evenodd" clip-rule="evenodd" d="M17.75 17.5C17.75 15.1528 19.6528 13.25 22 13.25C24.3472 13.25 26.25 15.1528 26.25 17.5C26.25 19.8472 24.3472 21.75 22 21.75C19.6528 21.75 17.75 19.8472 17.75 17.5ZM22 14.75C20.4812 14.75 19.25 15.9812 19.25 17.5C19.25 19.0188 20.4812 20.25 22 20.25C23.5188 20.25 24.75 19.0188 24.75 17.5C24.75 15.9812 23.5188 14.75 22 14.75Z" fill="black"/>
<path fill-rule="evenodd" clip-rule="evenodd" d="M18 24.75C16.7574 24.75 15.75 25.7574 15.75 27V28.1883C15.75 28.2064 15.7631 28.2218 15.781 28.2247C19.8997 28.8972 24.1003 28.8972 28.219 28.2247C28.2369 28.2218 28.25 28.2064 28.25 28.1883V27C28.25 25.7574 27.2426 24.75 26 24.75H25.6591C25.6328 24.75 25.6066 24.7542 25.5815 24.7623L24.716 25.045C22.9512 25.6212 21.0488 25.6212 19.284 25.045L18.4185 24.7623C18.3934 24.7542 18.3672 24.75 18.3409 24.75H18ZM14.25 27C14.25 24.9289 15.9289 23.25 18 23.25H18.3409C18.5254 23.25 18.7087 23.2792 18.8841 23.3364L19.7496 23.6191C21.2119 24.0965 22.7881 24.0965 24.2504 23.6191L25.1159 23.3364C25.2913 23.2792 25.4746 23.25 25.6591 23.25H26C28.0711 23.25 29.75 24.9289 29.75 27V28.1883C29.75 28.9415 29.2041 29.5837 28.4607 29.7051C24.1819 30.4037 19.8181 30.4037 15.5393 29.7051C14.7959 29.5837 14.25 28.9415 14.25 28.1883V27Z" fill="black"/>
</svg>
