<svg width="25" height="24" viewBox="0 0 25 24" fill="none" xmlns="http://www.w3.org/2000/svg">
<path fill-rule="evenodd" clip-rule="evenodd" d="M8.75 12C8.75 9.92893 10.4289 8.25 12.5 8.25C14.5711 8.25 16.25 9.92893 16.25 12C16.25 14.0711 14.5711 15.75 12.5 15.75C10.4289 15.75 8.75 14.0711 8.75 12ZM12.5 9.75C11.2574 9.75 10.25 10.7574 10.25 12C10.25 13.2426 11.2574 14.25 12.5 14.25C13.7426 14.25 14.75 13.2426 14.75 12C14.75 10.7574 13.7426 9.75 12.5 9.75Z" fill="#BBB5B5"/>
<path fill-rule="evenodd" clip-rule="evenodd" d="M4.82343 10.6464C4.40431 11.2503 4.25 11.7227 4.25 12C4.25 12.2773 4.40431 12.7497 4.82343 13.3536C5.22857 13.9374 5.83078 14.5703 6.59267 15.155C8.11978 16.3271 10.2134 17.25 12.5 17.25C14.7865 17.25 16.8802 16.3271 18.4073 15.155C19.1692 14.5703 19.7714 13.9374 20.1766 13.3536C20.5957 12.7497 20.75 12.2773 20.75 12C20.75 11.7227 20.5957 11.2503 20.1766 10.6464C19.7714 10.0626 19.1692 9.42972 18.4073 8.84497C16.8802 7.67292 14.7865 6.75 12.5 6.75C10.2134 6.75 8.11978 7.67292 6.59267 8.84497C5.83078 9.42972 5.22857 10.0626 4.82343 10.6464ZM5.67941 7.65503C7.40965 6.32708 9.81598 5.25 12.5 5.25C15.184 5.25 17.5903 6.32708 19.3206 7.65503C20.1874 8.32028 20.9032 9.06244 21.4089 9.79115C21.9006 10.4997 22.25 11.2773 22.25 12C22.25 12.7227 21.9006 13.5003 21.4089 14.2089C20.9032 14.9376 20.1874 15.6797 19.3206 16.345C17.5903 17.6729 15.184 18.75 12.5 18.75C9.81598 18.75 7.40965 17.6729 5.67941 16.345C4.81262 15.6797 4.09681 14.9376 3.5911 14.2089C3.09937 13.5003 2.75 12.7227 2.75 12C2.75 11.2773 3.09937 10.4997 3.5911 9.79115C4.09681 9.06244 4.81262 8.32028 5.67941 7.65503Z" fill="#BBB5B5"/>
</svg>
