<svg width="24" height="24" viewBox="0 0 24 24" fill="none" xmlns="http://www.w3.org/2000/svg">
<path d="M15.5 12C15.5 11.1716 16.1716 10.5 17 10.5C17.8284 10.5 18.5 11.1716 18.5 12C18.5 12.8284 17.8284 13.5 17 13.5C16.1716 13.5 15.5 12.8284 15.5 12Z" fill="white"/>
<path fill-rule="evenodd" clip-rule="evenodd" d="M20.4407 6.67402C19.783 5.12836 18.3296 4.01723 16.6001 3.83523L15.9482 3.76664C12.6559 3.42018 9.3352 3.44303 6.04796 3.83475L5.61602 3.88622C3.94722 4.08508 2.62497 5.38889 2.40269 7.05473C1.96473 10.337 1.96473 13.663 2.40269 16.9453C2.62497 18.6111 3.94722 19.9149 5.61602 20.1138L6.04796 20.1653C9.3352 20.557 12.6559 20.5798 15.9482 20.2334L16.6001 20.1648C18.3296 19.9828 19.783 18.8717 20.4407 17.326C21.48 17.0166 22.2732 16.1156 22.4034 15.0024C22.6367 13.0076 22.6367 10.9924 22.4034 8.99764C22.2732 7.88442 21.48 6.98344 20.4407 6.67402ZM15.7912 5.2584C12.6101 4.92365 9.40163 4.94573 6.22545 5.32421L5.79351 5.37568C4.80469 5.49351 4.02122 6.26606 3.88952 7.25312C3.46912 10.4038 3.46912 13.5963 3.88952 16.7469C4.02122 17.734 4.8047 18.5065 5.79351 18.6243L6.22545 18.6758C9.40163 19.0543 12.6101 19.0764 15.7912 18.7416L16.4431 18.673C17.2936 18.5835 18.0462 18.1643 18.5677 17.542C17.0596 17.6299 15.5314 17.5906 14.0411 17.4241C12.7718 17.2822 11.7452 16.2826 11.5955 15.0024C11.3622 13.0076 11.3622 10.9924 11.5955 8.99764C11.7452 7.71738 12.7718 6.71784 14.0411 6.57597C15.5314 6.40942 17.0596 6.37012 18.5677 6.45806C18.0462 5.83574 17.2936 5.4165 16.4431 5.327L15.7912 5.2584ZM19.2768 8.01471C19.2774 8.01855 19.278 8.02239 19.2786 8.02623L19.2846 8.06511L19.4833 8.03426C19.5861 8.04444 19.6887 8.05524 19.7911 8.06669C20.3785 8.13234 20.8462 8.59648 20.9135 9.17189C21.1334 11.0509 21.1334 12.9491 20.9135 14.8281C20.8462 15.4035 20.3785 15.8677 19.7911 15.9333C19.6887 15.9448 19.586 15.9556 19.4833 15.9658L19.2846 15.9349L19.2786 15.9738C19.278 15.9776 19.2774 15.9815 19.2768 15.9853C17.5981 16.1372 15.8766 16.1199 14.2078 15.9333C13.6204 15.8677 13.1526 15.4035 13.0853 14.8281C12.8655 12.9491 12.8655 11.0509 13.0853 9.17189C13.1526 8.59648 13.6204 8.13234 14.2078 8.06669C15.8766 7.88017 17.5981 7.86285 19.2768 8.01471Z" fill="white"/>
</svg>
